<svg xmlns="http://www.w3.org/2000/svg" xmlns:xlink="http://www.w3.org/1999/xlink" width="1080" zoomAndPan="magnify" viewBox="0 0 810 809.999993" height="1080" preserveAspectRatio="xMidYMid meet" version="1.0"><defs><clipPath id="3915700cb6"><path d="M 0 0 L 809.351562 0 L 809.351562 809.351562 L 0 809.351562 Z M 0 0 " clip-rule="nonzero"/></clipPath><clipPath id="2e2c0c3d54"><path d="M 243 289.371094 L 567 289.371094 L 567 520.371094 L 243 520.371094 Z M 243 289.371094 " clip-rule="nonzero"/></clipPath></defs><g clip-path="url(#3915700cb6)"><path fill="#36447c" d="M 404.675781 809.351562 C 296.632812 809.351562 194.898438 767.300781 118.554688 690.796875 C 42.050781 614.453125 0 512.71875 0 404.675781 C 0 296.632812 42.050781 194.898438 118.554688 118.554688 C 194.898438 42.054688 296.632812 0 404.675781 0 C 512.71875 0 614.453125 42.054688 690.796875 118.554688 C 767.300781 195.058594 809.351562 296.632812 809.351562 404.675781 C 809.351562 512.71875 767.300781 614.453125 690.796875 690.796875 C 614.453125 767.300781 512.71875 809.351562 404.675781 809.351562 Z M 404.675781 24.261719 C 303.101562 24.261719 207.515625 63.886719 135.699219 135.699219 C 63.886719 207.515625 24.261719 303.101562 24.261719 404.675781 C 24.261719 506.25 63.886719 601.839844 135.699219 673.652344 C 207.515625 745.464844 303.101562 785.089844 404.675781 785.089844 C 506.25 785.089844 601.839844 745.464844 673.652344 673.652344 C 745.464844 601.839844 785.089844 506.25 785.089844 404.675781 C 785.089844 303.101562 745.464844 207.515625 673.652344 135.699219 C 601.839844 63.886719 506.25 24.261719 404.675781 24.261719 Z M 404.675781 24.261719 " fill-opacity="1" fill-rule="nonzero"/></g><g clip-path="url(#2e2c0c3d54)"><path fill="#36447c" d="M 277.816406 289.371094 C 258.65625 289.371094 243.128906 304.863281 243.128906 324.023438 C 243.558594 376.566406 243.128906 432.175781 243.128906 485.722656 C 243.128906 504.164062 257.488281 519.089844 275.648438 520.191406 L 533.628906 520.371094 C 552.125 519.625 566.871094 504.40625 566.871094 485.722656 L 566.871094 318.070312 C 564.066406 301.734375 549.867188 289.375 532.726562 289.375 C 447.800781 289.414062 362.773438 289.375 277.8125 289.375 Z M 277.273438 307.601562 L 533.8125 307.601562 L 409.695312 431.582031 C 407.429688 433.84375 403.832031 433.84375 401.566406 431.582031 Z M 549.53125 316.441406 L 549.53125 484.460938 C 549.53125 494.46875 545.917969 500.125 538.691406 502.144531 L 451.25 414.621094 L 549.53125 316.445312 Z M 262.460938 317.164062 L 359.117188 413.714844 L 270.773438 501.964844 C 264.726562 499.925781 262.621094 495.0625 262.464844 488.429688 L 262.464844 317.164062 Z M 371.402344 425.804688 L 401.570312 456.121094 C 403.835938 458.382812 407.4375 458.382812 409.703125 456.121094 L 438.96875 426.886719 L 515.210938 503.046875 L 294.082031 503.046875 Z M 371.402344 425.804688 " fill-opacity="1" fill-rule="nonzero"/></g></svg>