  <svg 
  xmlns="http://www.w3.org/2000/svg" xmlns:xlink="http://www.w3.org/1999/xlink" width="56" 
  zoomAndPan="magnify" 
  viewBox="0 0 810 809.999993" 
  height="56" 
  preserveAspectRatio="xMidYMid meet" version="1.0"
  >
  <defs>
    <clipPath id="2627574b2c">
      <path 
        d="M 0 0 L 809.351562 0 L 809.351562 809.351562 L 0 809.351562 Z M 0 0 " clip-rule="nonzero"
      />
    </clipPath>
      <clipPath id="0459f06d34">
        <path 
          d="M 268.128906 210.957031 L 541.878906 210.957031 L 541.878906 598.707031 L 268.128906 598.707031 Z M 268.128906 210.957031 " clip-rule="nonzero"
        />
      </clipPath>
  </defs>
    <g clip-path="url(#2627574b2c)">
      <path 
        fill="#36447c" 
        d="M 404.675781 809.351562 C 296.632812 809.351562 194.898438 767.300781 118.554688 690.796875 C 42.050781 614.453125 0 512.71875 0 404.675781 C 0 296.632812 42.050781 194.898438 118.554688 118.554688 C 194.898438 42.050781 296.632812 0 404.675781 0 C 512.71875 0 614.453125 42.050781 690.796875 118.554688 C 767.300781 195.058594 809.351562 296.632812 809.351562 404.675781 C 809.351562 512.71875 767.300781 614.453125 690.796875 690.796875 C 614.453125 767.300781 512.71875 809.351562 404.675781 809.351562 Z M 404.675781 24.261719 C 303.101562 24.261719 207.515625 63.886719 135.699219 135.699219 C 63.886719 207.515625 24.261719 303.101562 24.261719 404.675781 C 24.261719 506.25 63.886719 601.839844 135.699219 673.652344 C 207.515625 745.464844 303.101562 785.089844 404.675781 785.089844 C 506.25 785.089844 601.839844 745.464844 673.652344 673.652344 C 745.464844 601.839844 785.089844 506.25 785.089844 404.675781 C 785.089844 303.101562 745.464844 207.515625 673.652344 135.699219 C 601.839844 63.886719 506.25 24.261719 404.675781 24.261719 Z M 404.675781 24.261719 " 
        fill-opacity="1" 
        fill-rule="nonzero"
      />
    </g>
    <g clip-path="url(#0459f06d34)">
      <path 
        fill="#36447c" 
        d="M 501.988281 251.972656 C 476.578125 226.28125 442.722656 211.714844 406.59375 210.996094 C 406.066406 210.957031 405.535156 210.957031 405.003906 210.957031 C 404.472656 210.957031 403.945312 210.957031 403.414062 210.996094 C 367.285156 211.714844 333.429688 226.242188 307.980469 251.972656 C 282.304688 277.964844 268.179688 312.359375 268.179688 348.871094 C 268.179688 351.21875 268.253906 353.679688 268.367188 356.136719 C 268.367188 356.25 268.367188 356.363281 268.40625 356.476562 C 268.859375 364.800781 270.109375 373.164062 272.078125 381.335938 C 281.28125 427.761719 308.398438 464.804688 337.101562 504.039062 C 355.734375 529.503906 375.011719 555.839844 391.332031 586.980469 C 391.976562 592.425781 395.992188 597.003906 401.445312 598.292969 C 402.46875 598.519531 403.527344 598.671875 404.550781 598.671875 C 404.703125 598.671875 404.851562 598.671875 405.042969 598.671875 C 406.214844 598.707031 407.429688 598.59375 408.601562 598.328125 C 414.054688 597.003906 418.03125 592.464844 418.714844 587.015625 C 435.035156 555.875 454.273438 529.582031 472.945312 504.078125 C 501.574219 464.804688 528.6875 427.761719 537.929688 381.375 C 539.9375 373.125 541.148438 364.726562 541.601562 356.363281 C 541.601562 356.289062 541.601562 356.25 541.601562 356.175781 C 541.714844 353.714844 541.792969 351.257812 541.792969 348.871094 C 541.828125 312.359375 527.667969 277.964844 501.988281 251.972656 Z M 515.09375 354.546875 C 515.09375 354.660156 515.09375 354.738281 515.09375 354.851562 C 514.714844 361.699219 513.730469 368.585938 512.0625 375.359375 C 512.027344 375.546875 511.988281 375.738281 511.949219 375.925781 C 503.921875 416.675781 479.609375 449.894531 451.472656 488.339844 C 435.832031 509.714844 419.773438 531.660156 405.042969 556.824219 C 390.3125 531.660156 374.253906 509.714844 358.613281 488.339844 C 330.4375 449.894531 306.125 416.675781 298.097656 375.925781 C 298.058594 375.738281 298.019531 375.546875 297.984375 375.359375 C 296.316406 368.585938 295.292969 361.699219 294.953125 354.851562 C 294.953125 354.773438 294.953125 354.699219 294.953125 354.625 C 294.839844 352.65625 294.800781 350.726562 294.800781 348.871094 C 294.800781 288.296875 344.109375 238.351562 404.738281 237.519531 C 404.851562 237.519531 404.929688 237.519531 405.042969 237.519531 C 405.15625 237.519531 405.230469 237.519531 405.34375 237.519531 C 465.976562 238.351562 515.28125 288.296875 515.28125 348.871094 C 515.246094 350.6875 515.167969 352.617188 515.09375 354.546875 Z M 515.09375 354.546875 " fill-opacity="1" 
        fill-rule="nonzero"
      />
    </g>
    <path 
      fill="#36447c" 
      d="M 405.003906 290.074219 C 367.703125 290.074219 337.332031 320.417969 337.332031 357.6875 C 337.332031 394.957031 367.703125 425.300781 405.003906 425.300781 C 442.304688 425.300781 472.679688 394.957031 472.679688 357.6875 C 472.679688 320.417969 442.304688 290.074219 405.003906 290.074219 Z M 405.003906 398.703125 C 382.359375 398.703125 363.914062 380.277344 363.914062 357.652344 C 363.914062 335.023438 382.359375 316.597656 405.003906 316.597656 C 427.652344 316.597656 446.09375 335.023438 446.09375 357.652344 C 446.09375 380.277344 427.652344 398.703125 405.003906 398.703125 Z M 405.003906 398.703125 " 
      fill-opacity="1" 
      fill-rule="nonzero"
    />
  </svg>