<?xml version="1.0" encoding="UTF-8"?>
<!DOCTYPE svg PUBLIC "-//W3C//DTD SVG 1.1//EN" "http://www.w3.org/Graphics/SVG/1.1/DTD/svg11.dtd">
<!-- Creator: CorelDRAW 2019 (64 Bit) -->
<svg xmlns="http://www.w3.org/2000/svg" xml:space="preserve" width="165.26mm" height="86.1942mm" version="1.1" style="shape-rendering:geometricPrecision; text-rendering:geometricPrecision; image-rendering:optimizeQuality; fill-rule:evenodd; clip-rule:evenodd"
viewBox="0 0 16411.93 8559.91"
 xmlns:xlink="http://www.w3.org/1999/xlink"
 xmlns:xodm="http://www.corel.com/coreldraw/odm/2003">
 <defs>
  <style type="text/css">
   <![CDATA[
    .fil0 {fill:#FEFEFE;fill-rule:nonzero}
    .fil1 {fill:url(#id0)}
   ]]>
  </style>
  <linearGradient id="id0" gradientUnits="userSpaceOnUse" x1="3886.44" y1="6514.44" x2="3886.44" y2="1015.88">
   <stop offset="0" style="stop-opacity:1; stop-color:#28A942"/>
   <stop offset="1" style="stop-opacity:1; stop-color:#96C71E"/>
  </linearGradient>
 </defs>
 <g id="Camada_x0020_1">
  <metadata id="CorelCorpID_0Corel-Layer"/>
  <g id="_2932062226784">
   <path class="fil0" d="M5367.5 8523c172.05,41.97 342.02,47.03 480.74,13.1 138.42,-33.34 229.21,-125.02 229.21,-261.06 0,-139.01 -91.68,-231.29 -273.86,-277.73l-186.94 -47.03c-33.34,-8.03 -49.7,-23.52 -49.7,-45.54 0,-32.15 47.03,-48.82 117.87,-48.82 70.55,0 152.71,7.75 239.03,24.41 62.81,13.1 101.22,-16.66 101.22,-79.48l0 -25.29c-0.89,-53.89 -27.09,-87.22 -79.48,-100.32 -324.46,-77.39 -669.76,-19.94 -669.76,240.82 0,130.09 85.44,217.6 270.89,263.74l174.73 44.65c44.65,11.31 67.27,30.36 67.27,56.56 0,37.51 -47.92,55.96 -127.39,55.96 -79.48,0.89 -167.59,-7.74 -271.18,-26.2 -63.7,-10.42 -100.31,18.46 -100.31,81.27l0 29.48c0.3,55.07 26.5,88.41 77.69,101.5zm1529.6 -879.32c-81.55,0 -174.43,9.52 -278.91,29.77 -63.4,11.9 -94.96,45.83 -94.96,102.4l0 43.46c0,62.51 37.51,93.76 100.31,80.37 87.82,-16.97 161.93,-25.6 220.87,-25.6 124.42,0 186.94,41.67 186.94,124.13l0 4.47 -193.19 0c-119.97,0 -201.53,15.77 -269.7,55.07 -67.87,39.29 -101.8,111.62 -101.8,216.41 0,104.77 33.93,176.81 101.21,214.92 66.98,38.99 148.84,54.77 270.29,54.77l219.97 0c98.53,0 170.27,-19.05 215.51,-58.34 45.25,-38.99 67.87,-105.68 67.87,-200.92l0 -286.36c0,-123.23 -46.14,-217.3 -126.21,-272.66 -80.36,-54.77 -185.74,-81.86 -318.21,-81.86zm-35.12 709.05c-44.66,0 -74.72,-5.96 -89.61,-17.27 -14.88,-11.61 -21.73,-31.55 -21.73,-61.31 0,-29.77 6.85,-50.61 21.73,-62.22 14.89,-11.31 44.95,-16.37 90.49,-16.37l168.49 0 0 74.11c0,62.22 -14.29,83.05 -76.51,83.05l-92.86 0zm1483.75 -1091.25c-49.7,-0.89 -85.72,21.13 -108.35,64.59l-61.03 121.15c-32.44,61.62 -5.35,107.16 64.6,107.16l43.76 0c47.93,0.89 84.53,-19.35 109.84,-59.24l78.58 -124.72c38.4,-62.8 13.1,-108.94 -60.12,-108.94l-67.28 0zm42.87 890.62c0,62.22 -11.61,103.89 -33.34,126.81 -21.73,23.52 -60.13,34.83 -114.31,34.83 -55.07,0 -93.47,-11.31 -115.2,-34.83 -22.62,-23.81 -34.23,-65.48 -34.23,-126.81l0 -400.65c0,-58.34 -31.25,-91.68 -90.49,-91.68l-130.09 0c-60.13,0 -91.38,33.34 -91.38,91.68l0 393.81c0,158.06 39,267.01 120.26,328.92 80.97,61.92 185.74,85.44 340.23,85.44 154.49,0 260.16,-23.52 341.13,-85.44 80.37,-61.91 119.36,-170.86 119.36,-328.92l0 -393.81c0,-58.34 -33.04,-91.68 -91.38,-91.68l-129.18 0c-59.24,0 -91.38,33.34 -91.38,91.68l0 400.65zm1336.72 -506.63c-29.77,-0.89 -58.64,-1.79 -86.63,-1.79 -167.29,0 -286.66,28.88 -377.15,97.64 -91.38,69.65 -138.41,189.02 -138.41,359.58 0,171.76 47.02,290.52 138.41,360.18 90.49,69.66 210.75,98.53 377.15,98.53 137.23,0 237.24,-22.62 301.84,-67.27 64.59,-44.36 96.74,-120.26 96.74,-225.94l0 -882.58c0,-59.24 -31.25,-91.38 -90.49,-91.38l-130.97 0c-59.24,0 -90.49,32.15 -90.49,91.38l0 261.65zm-108.36 668.26c-67.27,0 -115.2,-15.77 -142.28,-47.33 -26.79,-31.55 -40.79,-86.62 -40.79,-165.5 0,-79.48 13.99,-134.84 41.68,-166.39 27.98,-30.37 76.8,-46.14 145.86,-46.14 29.47,0.89 64.59,3.27 103.89,8.63l0 319.4c0,37.8 -6.26,64 -19.36,77.09 -13.1,13.1 -42.86,20.24 -89,20.24zm1736.48 -314.33c0,-236.94 -151.52,-355.42 -420.31,-355.42 -313.44,0 -474.48,163.13 -474.48,458.12 0,152.4 41.97,266.71 125.32,342.62 83.64,76.8 197.65,115.2 343.8,115.2 89.31,0 185.15,-13.1 288.74,-39.3 51.5,-13.1 77.69,-46.14 77.69,-101.21l0 -33.04c0,-65.48 -39.29,-92.58 -101.8,-78.58 -77.69,16.66 -143.77,25.3 -198.24,25.3 -111.93,0 -176.82,-26.2 -207.18,-104.19l359.28 -36.62c76.5,-8.03 130.38,-26.5 161.04,-55.37 30.36,-28.88 46.14,-74.42 46.14,-137.52zm-582.24 35.13c10.42,-135.74 59.54,-185.75 161.93,-185.75 91.68,0 134.54,39.59 134.54,120.85 0,27.99 -9.52,37.81 -47.93,41.38l-248.55 23.52z"/>
   <path class="fil0" d="M9184.5 1815.39c-421.9,0 -902.31,49.28 -1442.77,153.98 -327.97,61.59 -491.19,237.13 -491.19,529.69l0 224.81c0,323.35 194.01,485.03 518.9,415.74 454.23,-87.77 837.64,-132.42 1142.52,-132.42 643.63,0 966.98,215.56 966.98,642.09l0 23.09 -999.31 0c-620.54,0 -1042.43,81.61 -1395.04,284.86 -351.07,203.26 -526.6,577.42 -526.6,1119.42 0,542 175.53,914.63 523.52,1111.72 346.45,201.71 769.89,283.32 1398.12,283.32l1137.89 0c509.67,0 880.76,-98.54 1114.8,-301.79 234.05,-201.72 351.07,-546.63 351.07,-1039.35l0 -1481.26c0,-637.47 -238.66,-1124.04 -652.86,-1410.43 -415.74,-283.32 -960.82,-423.45 -1646.03,-423.45zm-181.69 3667.75c-230.97,0 -386.48,-30.8 -463.48,-89.31 -76.98,-60.05 -112.4,-163.22 -112.4,-317.19 0,-153.97 35.41,-261.76 112.4,-321.81 76.99,-58.51 232.5,-84.68 468.1,-84.68l871.51 0 0 383.4c0,321.81 -73.91,429.59 -395.72,429.59l-480.41 0zm5829.96 -1435.07l1444.31 -1638.32c215.57,-275.62 58.51,-511.21 -343.37,-511.21l-680.58 0c-275.62,4.62 -474.25,95.47 -591.28,271l-1385.8 1661.42 0 -3356.71c0,-307.95 -161.68,-474.24 -468.1,-474.24l-672.88 0c-311.03,0 -472.71,166.29 -472.71,474.24l0 5527.8c0,306.42 166.3,469.64 472.71,469.64l672.88 0c306.42,0 468.1,-163.22 468.1,-469.64l0 -1701.45 1390.41 1890.84c121.64,184.78 320.27,280.24 594.36,280.24l708.3 0c397.27,0 555.87,-226.35 357.23,-511.21l-1493.58 -1912.4z"/>
   <path class="fil1" d="M4210.21 5217.88c691.05,0 1167.05,-542.81 1167.05,-1217.88l0 -12.84c0,-675.33 -488.64,-1230.73 -1179.7,-1230.73 -690.52,0 -1167.03,542.99 -1167.03,1218.04l0 12.69c0,675.21 489.15,1230.72 1179.68,1230.72l0 0zm-3355.73 -3445.01c199.07,0 360.48,161.49 360.48,360.64 0,199.08 -161.42,360.55 -360.48,360.55 -199.43,0 -360.87,-161.48 -360.87,-360.55 0,-199.16 161.44,-360.64 360.87,-360.64zm-493.61 1084.74c199.07,0 360.48,161.5 360.48,360.65 0,199.08 -161.42,360.55 -360.48,360.55 -199.43,0 -360.87,-161.48 -360.87,-360.55 0,-199.16 161.44,-360.65 360.87,-360.65zm784.7 2015.7c281.46,0 509.72,228.35 509.72,509.93 0,281.48 -228.25,509.83 -509.72,509.83 -282.01,0 -510.27,-228.34 -510.27,-509.83 0,-281.58 228.26,-509.93 510.27,-509.93zm-626.23 -947.7c182.37,0 329.97,147.91 329.97,330.55 0,182.48 -147.59,330.39 -329.97,330.39 -182.93,0 -330.52,-147.91 -330.52,-330.39 0,-182.64 147.59,-330.55 330.52,-330.55zm803.84 -1228.48c182.37,0 330.5,147.9 330.5,330.27 0,182.59 -148.13,330.48 -330.5,330.48 -182.39,0 -330.51,-147.89 -330.51,-330.48 0,-182.37 148.12,-330.27 330.51,-330.27zm2874.37 3769.39c-459.63,0 -904.51,-109.8 -1292.47,-325.81 -72.74,193.36 -258.82,330.98 -477.57,330.98 -281.5,0 -509.74,-228.44 -509.74,-509.92 0,-190.19 103.85,-356.11 258.27,-443.74 129.71,-92.48 214.55,-244.05 214.55,-415.25 0,-281.6 -228.76,-509.94 -510.22,-509.94 -24.81,0 -49.03,1.79 -72.75,5.2 -23.19,6.85 -46.93,12.04 -71.18,15.46l-0.51 0.09c-23.73,3.33 -48,5.23 -72.22,5.23 -282.03,0 -510.24,-228.24 -510.24,-509.84 0,-281.67 228.21,-509.92 510.24,-509.92 8.96,0 17.91,0.2 26.88,0.68l0.52 0c36.89,1.97 73.26,8.16 108.07,17.57 9.47,0.57 18.44,0.9 27.94,0.9 281.46,0 509.2,-228.35 509.2,-509.93 0,-196.62 -110.71,-367.1 -273.58,-452.27l-10.56 -5.19 -2.63 -1.29c-161.29,-85.68 -271.47,-255.45 -271.47,-450.76 0,-281.58 228.26,-509.93 510.25,-509.93 190.32,0 356.87,104.85 444.36,260.1 428.55,-290.58 943.01,-441.01 1477.51,-441.01 797.01,0 1548.15,329.52 2036.8,967.79 330.48,431.6 500.23,956.36 500.23,1498.81l0 12.77c0,532.75 -165.52,1048.43 -484.43,1476.31 -488.63,656.52 -1252.97,1003.15 -2065.25,1003.15l0 -0.22zm-2021.51 -948.5l0 0zm-440.11 -904.44l0 0zm313.62 -1964.07l0 0z"/>
  </g>
 </g>
</svg>
