<svg version="1.1" id="Layer_1" xmlns="http://www.w3.org/2000/svg" xmlns:xlink="http://www.w3.org/1999/xlink" x="0px" y="0px"
	 width="100%" viewBox="0 0 1920 1001" enable-background="new 0 0 1920 1001" xml:space="preserve">
<path fill="#000000" opacity="1.000000" stroke="none" 
	d="
M1260.000000,1002.000000 
	C1223.643311,1002.000000 1187.286621,1002.000000 1150.369141,1001.619507 
	C1150.634033,1000.815125 1151.416870,1000.243286 1152.291992,999.989563 
	C1166.319824,995.922485 1175.317505,986.301147 1175.127319,969.990906 
	C1174.713867,934.527588 1175.008545,899.056030 1174.990723,863.587891 
	C1174.987427,856.920593 1171.708862,853.294434 1165.165283,853.058960 
	C1159.344849,852.849487 1153.505249,852.857544 1147.684448,853.063965 
	C1142.148315,853.260315 1138.657593,855.866577 1138.117432,861.210754 
	C1137.302734,869.270325 1137.306763,877.414551 1137.021118,885.524841 
	C1136.924927,888.255920 1137.005859,890.993286 1137.005859,893.024292 
	C1125.786743,894.085938 1115.462158,894.339478 1105.425903,896.172180 
	C1087.722900,899.404846 1074.005981,908.636841 1069.774414,927.051147 
	C1067.470947,937.075500 1067.009888,947.755615 1067.356934,958.084839 
	C1067.647827,966.741150 1070.051880,975.435913 1075.406128,982.753113 
	C1082.174438,992.002441 1091.844727,996.770630 1102.493286,1000.004578 
	C1103.443237,1000.293091 1104.169678,1001.317383 1105.000000,1002.000000 
	C1066.310059,1002.000000 1027.619995,1002.000000 988.306030,1001.633972 
	C989.096375,1000.544006 990.438477,999.574219 991.936157,999.133972 
	C1008.593323,994.236938 1017.618042,982.324341 1018.634521,965.855286 
	C1019.890808,945.500000 1019.071228,925.009399 1018.914429,904.579102 
	C1018.876221,899.605164 1014.812927,896.155518 1009.712219,896.032410 
	C1004.883667,895.915771 1000.033569,896.260498 995.222412,895.947815 
	C984.663269,895.261475 982.176636,899.748230 981.113403,908.973328 
	C980.961731,910.289551 981.070496,911.636475 981.068481,912.969177 
	C981.044983,928.295349 981.010315,943.621521 981.008545,958.947693 
	C981.007935,964.157898 979.309631,969.268127 974.303406,970.514404 
	C968.733887,971.901001 962.421204,972.172363 956.807007,971.051392 
	C949.240540,969.540710 948.212341,962.419617 948.097046,956.048889 
	C947.807678,940.060913 948.018982,924.064209 947.992981,908.071045 
	C947.978394,899.100159 944.921265,896.015198 936.154480,896.002258 
	C931.323181,895.995056 926.491943,895.991394 921.660645,896.003967 
	C913.656616,896.024719 910.046204,899.502563 910.021729,907.463623 
	C909.969360,924.456177 909.637024,941.461243 910.192200,958.435852 
	C910.414734,965.240479 911.925049,972.238281 914.167786,978.689758 
	C918.138062,990.110413 927.573242,995.925964 938.521667,999.685730 
	C939.795776,1000.123291 940.845947,1001.212769 942.000000,1002.000000 
	C906.309998,1002.000000 870.620056,1002.000000 834.346802,1001.599121 
	C834.265686,1000.832764 834.742249,1000.191040 835.273804,1000.141724 
	C854.996094,998.312134 860.387512,987.355530 860.917908,970.050720 
	C861.279846,958.239685 861.359436,946.392151 860.859985,934.590820 
	C860.418335,924.154480 857.660645,914.361816 849.434692,906.921631 
	C839.444458,897.885681 827.173828,894.371704 814.336975,894.251465 
	C801.666443,894.132812 788.956543,895.831299 776.310303,897.170837 
	C773.060852,897.514954 769.458374,898.856201 766.944031,900.886169 
	C762.091431,904.803955 761.240417,917.419250 764.937256,922.530396 
	C768.690674,927.719788 774.044617,926.179077 779.010376,925.481628 
	C789.618103,923.991882 800.133545,921.742981 810.949402,923.961853 
	C818.500854,925.511108 822.252930,929.444702 821.301331,936.039917 
	C817.731323,936.039917 814.081665,935.870056 810.452759,936.072021 
	C799.876587,936.660522 789.173279,936.589661 778.780273,938.331604 
	C770.426270,939.731750 762.977478,943.900940 759.554443,952.877930 
	C756.503052,960.879944 756.691162,968.935120 757.653442,977.229614 
	C758.768127,986.837402 763.958557,993.051697 772.745361,996.221924 
	C777.496460,997.936096 782.584167,998.701050 787.476990,1000.050110 
	C788.734924,1000.396912 789.830078,1001.334045 791.000000,1002.000000 
	C755.309998,1002.000000 719.620056,1002.000000 683.372925,1001.617188 
	C683.477051,1000.829285 684.089905,1000.222473 684.807129,1000.050110 
	C692.727600,998.146484 699.181641,994.100830 705.247925,988.523438 
	C715.101501,979.463928 714.243652,957.731567 705.237976,948.612732 
	C695.479309,938.731506 683.061646,935.472961 670.141541,932.974060 
	C665.624573,932.100464 661.078796,931.154114 656.748352,929.656555 
	C655.221924,929.128662 653.728333,926.986267 653.352966,925.325012 
	C653.179443,924.556885 655.562622,922.731689 657.076477,922.176819 
	C659.204102,921.397034 661.637451,920.898682 663.877686,921.074402 
	C673.579773,921.835205 683.278748,922.721619 692.941101,923.878052 
	C701.832153,924.942200 706.854431,921.796570 706.015625,913.253540 
	C705.902222,912.099060 706.006348,910.923767 705.998169,909.758240 
	C705.951416,903.104309 703.944214,899.831055 697.544373,898.125427 
	C691.681152,896.562866 685.621216,895.588745 679.587769,894.843201 
	C663.611084,892.869019 647.928467,893.306763 633.130371,900.924622 
	C622.658081,906.315613 617.278442,915.136169 617.212830,926.433350 
	C617.148499,937.509338 621.789001,947.237488 632.549988,951.596497 
	C644.562073,956.462463 657.132751,959.970154 669.524414,963.865112 
	C672.973511,964.949280 677.058289,965.960510 676.621155,970.013855 
	C676.196472,973.952026 671.895386,974.532654 668.376770,974.974304 
	C667.556519,975.077271 666.707886,975.065063 665.881775,974.994385 
	C654.699158,974.037964 643.499023,973.238953 632.343811,972.027222 
	C625.088684,971.239197 619.878540,974.026733 619.049377,979.850159 
	C617.348389,991.796448 620.853882,996.644592 632.631165,999.140076 
	C634.856201,999.611572 636.882202,1001.022522 639.000000,1002.000000 
	C426.406647,1002.000000 213.813309,1002.000000 1.000000,1002.000000 
	C1.000000,798.976746 1.000000,595.953369 1.305803,392.184021 
	C2.502186,392.968567 3.507496,394.444519 4.265856,396.037994 
	C13.113637,414.629242 32.084946,423.086609 51.169315,419.541107 
	C72.719559,415.537506 87.835022,397.790405 86.213814,373.630798 
	C84.569016,349.119568 60.027794,330.079346 33.997303,335.626373 
	C19.473772,338.721283 9.250776,347.365082 3.350197,361.078278 
	C2.995250,361.903198 1.802770,362.367767 1.000001,363.000000 
	C1.000000,242.362793 1.000000,121.725571 1.000000,1.000000 
	C467.356689,1.000000 933.713379,1.000000 1400.512207,1.372099 
	C1400.098145,2.182752 1399.285645,2.768609 1398.379028,3.037348 
	C1387.714966,6.198680 1378.912964,11.721134 1372.766602,21.394394 
	C1366.570312,31.146429 1364.058472,41.814442 1364.054810,53.065010 
	C1363.984009,269.015259 1363.994629,484.965546 1364.044434,700.915833 
	C1364.045654,706.366211 1364.258423,711.884094 1365.114258,717.252258 
	C1366.703857,727.224304 1370.316406,736.410828 1377.446411,743.908386 
	C1387.142700,754.104614 1399.581177,757.749756 1413.036987,757.905579 
	C1440.027100,758.218140 1467.023682,758.064758 1494.016968,757.952820 
	C1500.802979,757.924622 1507.624146,757.665405 1514.363525,756.919556 
	C1529.604736,755.232788 1540.936523,747.663086 1548.075562,733.860046 
	C1553.670166,723.043274 1554.885254,711.392822 1554.905640,699.579773 
	C1555.011353,638.260742 1554.954956,576.941406 1554.955200,515.622192 
	C1554.955200,513.729614 1554.955322,511.837006 1554.955322,509.944397 
	C1555.394531,509.792999 1555.833618,509.641571 1556.272827,509.490173 
	C1556.836182,510.258179 1557.400269,511.025604 1557.962769,511.794250 
	C1565.886841,522.622681 1573.775391,533.477600 1581.741577,544.275085 
	C1605.470581,576.437866 1629.290771,608.533752 1652.960083,640.740356 
	C1674.855347,670.532898 1696.450928,700.546875 1718.484985,730.235840 
	C1727.880249,742.895203 1740.574219,751.066528 1755.968994,755.039917 
	C1768.867188,758.369080 1781.979736,758.121643 1795.102661,757.989502 
	C1825.389648,757.684570 1855.699341,757.922424 1885.952393,756.733032 
	C1900.227539,756.171875 1912.715088,750.243347 1919.006226,735.779419 
	C1919.328857,735.037598 1920.320068,734.586426 1921.000000,734.000000 
	C1921.000000,823.289978 1921.000000,912.580017 1921.000000,1002.000000 
	C1714.976685,1002.000000 1508.953247,1002.000000 1302.381592,1001.601685 
	C1304.610352,1000.441956 1307.366577,999.591431 1310.168335,998.934509 
	C1322.022095,996.155334 1324.791870,990.658020 1322.257324,977.840210 
	C1321.173584,972.359741 1316.863647,970.510315 1311.288940,971.372559 
	C1302.169556,972.782959 1293.007935,974.557495 1283.831909,974.767334 
	C1276.106445,974.944031 1268.430908,972.944397 1264.540771,964.076355 
	C1275.675903,963.012573 1286.369263,962.133911 1297.024292,960.918396 
	C1303.236206,960.209717 1309.511597,959.428528 1315.527954,957.819092 
	C1321.009399,956.352722 1325.896729,953.496155 1328.014526,947.474426 
	C1333.877319,930.804810 1326.730103,904.825195 1305.049438,897.894714 
	C1287.526367,892.293152 1270.066895,892.234131 1252.927246,898.302002 
	C1239.018433,903.226135 1229.197144,913.139221 1226.138428,927.902405 
	C1224.379395,936.392883 1224.286743,945.293823 1224.068726,954.025635 
	C1223.471558,977.935852 1236.397095,993.418640 1257.949219,1000.048767 
	C1258.756470,1000.297119 1259.321899,1001.331787 1260.000000,1002.000000 
M277.990570,581.855835 
	C278.716339,589.237122 279.442108,596.618408 279.787872,604.706177 
	C277.154938,612.457520 274.521973,620.208862 271.292145,628.270081 
	C265.298584,638.772156 255.226929,644.899902 245.356949,652.192810 
	C236.215698,660.249817 230.096313,670.150818 226.991837,682.793884 
	C223.837738,695.073364 223.781708,707.190430 228.985947,719.784485 
	C232.698654,726.295593 235.587677,733.483765 240.278992,739.190369 
	C254.168259,756.085449 273.292358,759.639404 293.824036,757.811035 
	C302.543304,757.034607 310.806427,754.284119 318.317841,749.304016 
	C329.123169,742.140076 336.594696,732.400330 342.429321,720.958984 
	C342.429321,720.958984 342.917877,721.029480 343.318054,721.607788 
	C355.551941,727.222412 367.585785,733.333923 380.058167,738.356201 
	C413.981323,752.016113 449.542053,757.415222 485.927673,757.914612 
	C493.868500,758.023560 501.833038,757.506287 509.764191,756.954224 
	C521.596924,756.130432 533.480103,755.534851 545.217102,753.930420 
	C575.182678,749.834290 603.476624,740.143921 630.592407,726.935669 
	C635.270142,724.657227 639.612488,721.690125 644.817627,718.953491 
	C651.004578,715.237122 657.429932,711.861206 663.326904,707.730774 
	C674.320129,700.031006 686.126831,693.328369 695.711853,682.734741 
	C704.410645,673.821533 713.109497,664.908325 722.142334,655.398315 
	C729.012390,646.593506 735.882446,637.788635 743.109314,628.385986 
	C747.084045,621.592346 751.058716,614.798706 755.601257,607.586487 
	C757.119995,604.502930 758.737122,601.463440 760.138062,598.327271 
	C763.750549,590.240234 767.267517,582.110535 771.160828,573.345886 
	C774.007019,565.236572 776.853149,557.127319 779.931152,548.238831 
	C781.563782,541.157288 783.196350,534.075684 784.995850,526.202332 
	C786.607056,515.801453 788.218201,505.400574 789.958130,494.103607 
	C790.249390,485.734283 790.540649,477.364990 790.958740,468.066650 
	C790.582703,460.044037 790.206726,452.021454 789.959778,443.117889 
	C788.917480,435.078156 787.875244,427.038422 786.961365,418.151001 
	C785.584351,411.099854 784.207275,404.048706 782.917114,396.216644 
	C779.620667,385.788147 776.324219,375.359619 772.986145,364.171448 
	C770.005920,357.418701 767.025696,350.665955 763.979492,343.188141 
	C760.041382,335.666290 756.103333,328.144440 752.261047,319.984924 
	C749.697205,315.671478 747.359741,311.201477 744.512512,307.083923 
	C740.906311,301.868439 736.885681,296.939484 732.963074,291.194275 
	C727.641235,284.854919 722.319397,278.515564 716.396729,271.823212 
	C711.945374,267.177887 707.494019,262.532562 702.764160,257.284973 
	C694.877747,250.840240 686.991333,244.395508 678.982178,237.237274 
	C666.065186,228.859955 653.214294,220.377563 640.182068,212.183472 
	C637.141663,210.271774 633.485779,209.339050 630.008057,207.180206 
	C627.595581,206.101791 625.190369,205.006851 622.769287,203.948105 
	C615.940430,200.961761 609.254211,197.561401 602.234924,195.120148 
	C593.195068,191.976120 583.946228,189.374146 574.675903,186.968246 
	C565.880432,184.685593 556.971680,182.801727 548.052856,181.047089 
	C543.242737,180.100769 538.301697,179.832855 533.429504,179.185379 
	C528.408142,178.518051 523.397217,177.142410 518.384216,177.154480 
	C499.793488,177.199188 481.166840,177.084747 462.626495,178.219559 
	C449.958313,178.994965 437.335907,181.352722 424.834167,183.741684 
	C415.270996,185.569107 405.712341,187.938950 396.541260,191.172470 
	C384.133484,195.547150 372.098663,200.979568 359.177399,206.013657 
	C347.896179,212.318909 336.445801,218.347168 325.424561,225.078064 
	C321.511292,227.467972 319.956482,226.317734 317.777435,223.321304 
	C305.406891,206.310272 288.806183,198.191559 267.602295,197.823029 
	C242.729706,197.390762 219.652252,215.453720 211.302750,238.405197 
	C210.519562,243.247406 209.736374,248.089600 208.281189,253.452850 
	C208.910278,259.968353 209.539368,266.483887 210.094345,273.758484 
	C212.473694,281.989929 215.973846,289.629211 222.151154,296.622467 
	C225.896469,300.112885 229.396622,303.922821 233.439789,307.025055 
	C241.107422,312.908295 249.086273,318.385925 257.230957,324.638611 
	C264.620392,332.445160 269.816986,341.450714 272.387115,352.786377 
	C272.904449,357.450714 274.048370,362.152039 273.776093,366.769806 
	C273.455414,372.208252 271.907654,377.574310 270.292755,383.369812 
	C267.173431,392.787933 261.665527,400.712341 254.341873,408.197113 
	C252.066391,409.790680 249.828400,411.441223 247.509155,412.968323 
	C235.119492,421.126343 221.883224,424.639893 206.851852,422.230072 
	C199.190552,421.001770 191.011642,421.073975 183.346161,422.302277 
	C174.358337,423.742462 165.586212,426.897552 158.266281,434.024170 
	C150.517532,439.751282 144.680954,446.992584 140.325150,456.307617 
	C135.262680,468.470245 133.470856,480.988617 136.401978,494.729950 
	C139.254974,501.533813 142.107986,508.337677 145.274521,515.730957 
	C162.515274,537.490662 184.426910,546.351990 211.924591,539.978027 
	C222.569122,537.510620 232.808762,539.291138 242.789490,543.305298 
	C252.845428,547.349670 260.448181,554.662964 268.096558,562.785645 
	C271.380157,568.865601 274.663727,574.945618 277.990570,581.855835 
M194.951324,622.191101 
	C194.301437,619.497131 193.580444,616.817932 193.014725,614.106384 
	C191.136047,605.102173 186.631577,597.200195 180.603867,590.707397 
	C174.219528,583.830566 166.517548,578.205688 157.444397,574.735779 
	C146.114777,570.403015 134.636932,569.329285 122.762718,571.667358 
	C112.842613,573.620667 104.125748,578.160217 96.311348,584.328430 
	C83.221611,594.660645 75.959091,608.187439 74.741425,625.717224 
	C74.821495,629.432251 74.771156,633.155457 75.004837,636.860779 
	C75.885559,650.826111 81.690720,662.758667 91.287323,672.592712 
	C104.221420,685.846802 119.986717,692.135437 138.846756,691.142151 
	C151.367203,690.482727 162.776825,686.900269 172.062332,679.013489 
	C189.153015,664.497131 198.057556,646.063171 194.951324,622.191101 
M1342.939941,634.198486 
	C1343.293213,626.238647 1343.941528,618.279236 1343.952637,610.318909 
	C1344.037964,549.321289 1343.765137,488.322113 1344.129028,427.326538 
	C1344.252441,406.628662 1342.202026,386.237457 1337.634521,366.200500 
	C1328.538574,326.298004 1307.899292,293.308655 1275.749878,267.831421 
	C1256.312256,252.427856 1234.352295,241.850006 1210.953613,233.596344 
	C1175.475952,221.081924 1138.872681,214.883499 1101.571167,213.297897 
	C1077.169067,212.260605 1052.658325,213.570129 1028.202637,214.120285 
	C1020.103760,214.302490 1011.992737,215.131622 1003.944092,216.125320 
	C986.732788,218.250229 969.480347,220.212357 952.389343,223.097427 
	C931.897827,226.556534 911.392883,230.220444 891.191162,235.041702 
	C864.107117,241.505463 849.272888,262.453461 848.181458,289.145172 
	C847.618958,302.901489 847.830872,316.804779 849.159302,330.499390 
	C852.025757,360.048615 873.041138,373.684570 899.788574,370.655243 
	C919.622437,368.408905 939.169800,363.743103 958.947998,360.864258 
	C977.914673,358.103516 996.969116,355.662872 1016.070862,354.207764 
	C1029.755493,353.165314 1043.581543,353.977448 1057.344482,353.966278 
	C1073.027100,353.953583 1088.407593,356.353180 1103.279541,361.099670 
	C1123.536743,367.564941 1140.515015,378.501160 1149.913696,398.647369 
	C1154.471313,408.416260 1155.630493,418.777740 1155.961548,430.003143 
	C1153.355225,430.003143 1151.399048,430.003143 1149.442993,430.003113 
	C1108.444458,430.002808 1067.445801,430.096466 1026.447632,429.964539 
	C1004.344116,429.893402 982.406067,431.506561 960.568542,434.913391 
	C928.697510,439.885498 898.421570,449.071808 870.880127,466.513947 
	C851.245667,478.948547 837.502502,495.912048 827.865540,516.859741 
	C816.969788,540.543762 815.043945,565.816101 814.291809,591.151672 
	C813.875854,605.160889 815.800293,619.265869 817.065857,633.291931 
	C818.576172,650.030640 823.806152,665.815491 831.608276,680.561646 
	C843.761108,703.530518 862.728699,719.480774 885.623169,731.250244 
	C917.172729,747.468994 951.187256,754.046509 986.055054,756.827759 
	C1001.940430,758.094849 1017.962463,757.991028 1033.920654,757.940186 
	C1090.714722,757.759460 1147.508423,757.380066 1204.301392,756.974976 
	C1222.659546,756.844055 1240.544678,753.482544 1258.012207,747.991882 
	C1299.333008,735.003296 1326.785400,708.430298 1337.312744,665.811523 
	C1339.801270,655.736206 1341.025635,645.348572 1342.939941,634.198486 
M110.542870,292.106323 
	C113.519646,291.303955 116.644608,290.846924 119.449326,289.643555 
	C138.727234,281.372284 147.940002,260.242523 142.862900,239.989792 
	C138.974274,224.477890 128.799515,213.733124 113.445923,209.458099 
	C98.201347,205.213440 83.787872,207.994476 71.567406,218.928894 
	C62.206631,227.304565 58.743683,238.094452 58.625782,250.240265 
	C58.493759,263.841431 62.601120,275.530060 73.669960,284.304749 
	C84.462975,292.860779 96.797028,293.950989 110.542870,292.106323 
M151.729126,315.991486 
	C146.451355,317.568726 140.708466,318.296356 135.983292,320.883057 
	C121.981339,328.548096 116.807030,341.200531 116.926399,356.784027 
	C117.087257,377.783813 132.129074,392.497070 151.290726,394.835846 
	C180.037949,398.344513 202.221909,370.611115 193.408676,342.879150 
	C187.838104,325.350647 173.652100,315.987396 151.729126,315.991486 
M91.456841,472.096527 
	C82.934753,464.069672 73.157616,459.632935 61.111137,459.898132 
	C39.637650,460.370911 22.656622,475.842072 22.125084,498.351990 
	C21.600264,520.577515 41.049301,538.970703 62.775925,538.069763 
	C79.103279,537.392639 90.997589,529.825989 97.894257,515.458374 
	C105.200211,500.238037 102.505615,485.710205 91.456841,472.096527 
M960.194214,863.690979 
	C958.757446,866.667847 957.167236,869.581787 955.914673,872.634277 
	C952.943115,879.875549 956.216919,884.847046 963.943970,884.989258 
	C966.767456,885.041199 969.782166,885.620239 972.370789,884.837830 
	C975.834045,883.791138 979.926880,882.431641 982.041931,879.822388 
	C986.365845,874.488037 989.913513,868.419312 993.101929,862.299377 
	C996.280029,856.199402 994.446167,851.257202 987.554626,849.708252 
	C974.051086,846.673218 966.812134,850.011108 960.194214,863.690979 
z"/>
<path fill="#36447C" opacity="1.000000" stroke="none" 
	d="
M1921.000000,733.531616 
	C1920.320068,734.586426 1919.328857,735.037598 1919.006226,735.779419 
	C1912.715088,750.243347 1900.227539,756.171875 1885.952393,756.733032 
	C1855.699341,757.922424 1825.389648,757.684570 1795.102661,757.989502 
	C1781.979736,758.121643 1768.867188,758.369080 1755.968994,755.039917 
	C1740.574219,751.066528 1727.880249,742.895203 1718.484985,730.235840 
	C1696.450928,700.546875 1674.855347,670.532898 1652.960083,640.740356 
	C1629.290771,608.533752 1605.470581,576.437866 1581.741577,544.275085 
	C1573.775391,533.477600 1565.886841,522.622681 1557.962769,511.794250 
	C1557.400269,511.025604 1556.836182,510.258179 1556.272827,509.490173 
	C1555.833618,509.641571 1555.394531,509.792999 1554.955322,509.944397 
	C1554.955322,511.837006 1554.955200,513.729614 1554.955200,515.622192 
	C1554.954956,576.941406 1555.011353,638.260742 1554.905640,699.579773 
	C1554.885254,711.392822 1553.670166,723.043274 1548.075562,733.860046 
	C1540.936523,747.663086 1529.604736,755.232788 1514.363525,756.919556 
	C1507.624146,757.665405 1500.802979,757.924622 1494.016968,757.952820 
	C1467.023682,758.064758 1440.027100,758.218140 1413.036987,757.905579 
	C1399.581177,757.749756 1387.142700,754.104614 1377.446411,743.908386 
	C1370.316406,736.410828 1366.703857,727.224304 1365.114258,717.252258 
	C1364.258423,711.884094 1364.045654,706.366211 1364.044434,700.915833 
	C1363.994629,484.965546 1363.984009,269.015259 1364.054810,53.065010 
	C1364.058472,41.814442 1366.570312,31.146429 1372.766602,21.394394 
	C1378.912964,11.721134 1387.714966,6.198680 1398.379028,3.037348 
	C1399.285645,2.768609 1400.098145,2.182752 1400.977173,1.372099 
	C1437.020874,1.000000 1473.041870,1.000000 1509.665039,1.161047 
	C1510.511597,1.214718 1510.755737,1.107341 1511.000000,0.999982 
	C1513.370605,1.000000 1515.741089,1.000000 1518.463867,1.372621 
	C1520.395996,2.514739 1521.926758,3.413930 1523.563354,4.033405 
	C1537.312256,9.237112 1547.156372,18.493586 1550.852417,32.817581 
	C1553.146606,41.708538 1554.768066,51.059692 1554.786255,60.208107 
	C1555.036499,186.035934 1554.955200,311.864410 1554.955200,437.692749 
	C1554.955200,439.779846 1554.955322,441.866943 1554.955322,443.954010 
	C1558.955688,441.080627 1561.814819,437.758942 1564.620605,434.392914 
	C1578.743286,417.450470 1592.862427,400.505127 1606.962280,383.543671 
	C1617.777588,370.533325 1628.545288,357.483215 1639.365723,344.477051 
	C1651.575562,329.801025 1663.846191,315.175507 1676.043823,300.489380 
	C1688.538574,285.445496 1700.834106,270.233215 1713.508911,255.343353 
	C1718.740234,249.197784 1724.014771,242.674271 1730.525635,238.117371 
	C1744.943726,228.026276 1761.387329,223.039642 1779.127563,223.014084 
	C1809.959717,222.969650 1840.791992,222.928757 1871.623779,223.042633 
	C1882.221924,223.081772 1892.277954,225.583374 1901.567383,230.894958 
	C1912.632690,237.222000 1918.780396,248.533936 1916.768188,259.347015 
	C1914.766357,270.103912 1909.559082,279.186981 1902.217163,287.219055 
	C1892.804199,297.517029 1883.503540,307.919891 1874.276123,318.384766 
	C1860.654541,333.832916 1847.182861,349.413025 1833.566650,364.865936 
	C1822.579346,377.335083 1811.426880,389.658508 1800.430786,402.119720 
	C1786.253174,418.186249 1772.160278,434.327454 1758.027100,450.433105 
	C1751.039673,458.396027 1744.043823,466.351532 1736.881226,474.504364 
	C1748.107178,489.074799 1758.939819,503.323761 1769.973755,517.415222 
	C1790.530518,543.668030 1811.243164,569.798645 1831.818970,596.036560 
	C1853.718750,623.963013 1875.641602,651.872559 1897.331909,679.961365 
	C1905.304321,690.285767 1914.558716,699.833435 1918.948730,712.580078 
	C1919.166870,713.213745 1920.295410,713.533875 1921.000000,714.000000 
	C1921.000000,720.354431 1921.000000,726.708801 1921.000000,733.531616 
z"/>
<path fill="#000000" opacity="1.000000" stroke="none" 
	d="
M1921.000000,713.531311 
	C1920.295410,713.533875 1919.166870,713.213745 1918.948730,712.580078 
	C1914.558716,699.833435 1905.304321,690.285767 1897.331909,679.961365 
	C1875.641602,651.872559 1853.718750,623.963013 1831.818970,596.036560 
	C1811.243164,569.798645 1790.530518,543.668030 1769.973755,517.415222 
	C1758.939819,503.323761 1748.107178,489.074799 1736.881226,474.504364 
	C1744.043823,466.351532 1751.039673,458.396027 1758.027100,450.433105 
	C1772.160278,434.327454 1786.253174,418.186249 1800.430786,402.119720 
	C1811.426880,389.658508 1822.579346,377.335083 1833.566650,364.865936 
	C1847.182861,349.413025 1860.654541,333.832916 1874.276123,318.384766 
	C1883.503540,307.919891 1892.804199,297.517029 1902.217163,287.219055 
	C1909.559082,279.186981 1914.766357,270.103912 1916.768188,259.347015 
	C1918.780396,248.533936 1912.632690,237.222000 1901.567383,230.894958 
	C1892.277954,225.583374 1882.221924,223.081772 1871.623779,223.042633 
	C1840.791992,222.928757 1809.959717,222.969650 1779.127563,223.014084 
	C1761.387329,223.039642 1744.943726,228.026276 1730.525635,238.117371 
	C1724.014771,242.674271 1718.740234,249.197784 1713.508911,255.343353 
	C1700.834106,270.233215 1688.538574,285.445496 1676.043823,300.489380 
	C1663.846191,315.175507 1651.575562,329.801025 1639.365723,344.477051 
	C1628.545288,357.483215 1617.777588,370.533325 1606.962280,383.543671 
	C1592.862427,400.505127 1578.743286,417.450470 1564.620605,434.392914 
	C1561.814819,437.758942 1558.955688,441.080627 1554.955322,443.954010 
	C1554.955322,441.866943 1554.955200,439.779846 1554.955200,437.692749 
	C1554.955200,311.864410 1555.036499,186.035934 1554.786255,60.208107 
	C1554.768066,51.059692 1553.146606,41.708538 1550.852417,32.817581 
	C1547.156372,18.493586 1537.312256,9.237112 1523.563354,4.033405 
	C1521.926758,3.413930 1520.395996,2.514739 1518.908081,1.372621 
	C1652.947388,1.000000 1786.894897,1.000000 1921.000000,1.000000 
	C1921.000000,238.354202 1921.000000,475.708435 1921.000000,713.531311 
z"/>
<path fill="#606062" opacity="1.000000" stroke="none" 
	d="
M1105.468628,1002.000000 
	C1104.169678,1001.317383 1103.443237,1000.293091 1102.493286,1000.004578 
	C1091.844727,996.770630 1082.174438,992.002441 1075.406128,982.753113 
	C1070.051880,975.435913 1067.647827,966.741150 1067.356934,958.084839 
	C1067.009888,947.755615 1067.470947,937.075500 1069.774414,927.051147 
	C1074.005981,908.636841 1087.722900,899.404846 1105.425903,896.172180 
	C1115.462158,894.339478 1125.786743,894.085938 1137.005859,893.024292 
	C1137.005859,890.993286 1136.924927,888.255920 1137.021118,885.524841 
	C1137.306763,877.414551 1137.302734,869.270325 1138.117432,861.210754 
	C1138.657593,855.866577 1142.148315,853.260315 1147.684448,853.063965 
	C1153.505249,852.857544 1159.344849,852.849487 1165.165283,853.058960 
	C1171.708862,853.294434 1174.987427,856.920593 1174.990723,863.587891 
	C1175.008545,899.056030 1174.713867,934.527588 1175.127319,969.990906 
	C1175.317505,986.301147 1166.319824,995.922485 1152.291992,999.989563 
	C1151.416870,1000.243286 1150.634033,1000.815125 1149.904053,1001.619507 
	C1135.312378,1002.000000 1120.624878,1002.000000 1105.468628,1002.000000 
M1137.005859,943.501770 
	C1137.005859,942.002747 1137.005859,940.503662 1137.005859,939.004639 
	C1137.005859,924.029663 1136.980835,923.743835 1121.899780,925.064697 
	C1111.623901,925.964600 1106.229980,930.095032 1105.854126,939.147522 
	C1105.655273,943.939880 1104.875977,948.745911 1105.102295,953.510437 
	C1105.595215,963.881348 1109.728027,970.046387 1117.445557,971.601990 
	C1121.448853,972.408875 1125.719971,972.119446 1129.857300,971.969971 
	C1135.031006,971.782959 1136.919312,969.760498 1137.006714,964.486206 
	C1137.117310,957.826294 1137.015747,951.162842 1137.005859,943.501770 
z"/>
<path fill="#606062" opacity="1.000000" stroke="none" 
	d="
M791.468628,1002.000000 
	C789.830078,1001.334045 788.734924,1000.396912 787.476990,1000.050110 
	C782.584167,998.701050 777.496460,997.936096 772.745361,996.221924 
	C763.958557,993.051697 758.768127,986.837402 757.653442,977.229614 
	C756.691162,968.935120 756.503052,960.879944 759.554443,952.877930 
	C762.977478,943.900940 770.426270,939.731750 778.780273,938.331604 
	C789.173279,936.589661 799.876587,936.660522 810.452759,936.072021 
	C814.081665,935.870056 817.731323,936.039917 821.301331,936.039917 
	C822.252930,929.444702 818.500854,925.511108 810.949402,923.961853 
	C800.133545,921.742981 789.618103,923.991882 779.010376,925.481628 
	C774.044617,926.179077 768.690674,927.719788 764.937256,922.530396 
	C761.240417,917.419250 762.091431,904.803955 766.944031,900.886169 
	C769.458374,898.856201 773.060852,897.514954 776.310303,897.170837 
	C788.956543,895.831299 801.666443,894.132812 814.336975,894.251465 
	C827.173828,894.371704 839.444458,897.885681 849.434692,906.921631 
	C857.660645,914.361816 860.418335,924.154480 860.859985,934.590820 
	C861.359436,946.392151 861.279846,958.239685 860.917908,970.050720 
	C860.387512,987.355530 854.996094,998.312134 835.273804,1000.141724 
	C834.742249,1000.191040 834.265686,1000.832764 833.881714,1001.599121 
	C819.979126,1002.000000 805.958191,1002.000000 791.468628,1002.000000 
M792.283630,972.722229 
	C794.678711,974.143433 796.964905,976.498779 799.491333,976.793213 
	C804.906921,977.424438 810.503784,977.447510 815.906982,976.768799 
	C818.057495,976.498657 821.099731,974.015808 821.606995,972.003601 
	C822.532227,968.332886 821.870056,964.262085 821.870056,960.024536 
	C815.168945,960.024536 809.197266,959.929932 803.231201,960.072510 
	C800.944885,960.127075 798.590149,960.456848 796.408203,961.124023 
	C790.662231,962.881226 792.044128,967.702515 792.283630,972.722229 
z"/>
<path fill="#606062" opacity="1.000000" stroke="none" 
	d="
M1260.468628,1002.000000 
	C1259.321899,1001.331787 1258.756470,1000.297119 1257.949219,1000.048767 
	C1236.397095,993.418640 1223.471558,977.935852 1224.068726,954.025635 
	C1224.286743,945.293823 1224.379395,936.392883 1226.138428,927.902405 
	C1229.197144,913.139221 1239.018433,903.226135 1252.927246,898.302002 
	C1270.066895,892.234131 1287.526367,892.293152 1305.049438,897.894714 
	C1326.730103,904.825195 1333.877319,930.804810 1328.014526,947.474426 
	C1325.896729,953.496155 1321.009399,956.352722 1315.527954,957.819092 
	C1309.511597,959.428528 1303.236206,960.209717 1297.024292,960.918396 
	C1286.369263,962.133911 1275.675903,963.012573 1264.540771,964.076355 
	C1268.430908,972.944397 1276.106445,974.944031 1283.831909,974.767334 
	C1293.007935,974.557495 1302.169556,972.782959 1311.288940,971.372559 
	C1316.863647,970.510315 1321.173584,972.359741 1322.257324,977.840210 
	C1324.791870,990.658020 1322.022095,996.155334 1310.168335,998.934509 
	C1307.366577,999.591431 1304.610352,1000.441956 1301.916504,1001.601685 
	C1288.312378,1002.000000 1274.624878,1002.000000 1260.468628,1002.000000 
M1278.225220,937.963562 
	C1281.687378,937.641235 1285.197144,937.562988 1288.592651,936.899780 
	C1290.465820,936.533875 1293.036987,935.622375 1293.737793,934.193665 
	C1295.421265,930.762085 1292.961060,924.088013 1289.510742,922.322449 
	C1282.696533,918.835449 1275.703735,918.875488 1269.129517,922.967346 
	C1263.445190,926.505310 1262.777954,932.450134 1261.981812,939.132080 
	C1267.487427,938.721497 1272.396606,938.355469 1278.225220,937.963562 
z"/>
<path fill="#606062" opacity="1.000000" stroke="none" 
	d="
M942.468628,1002.000000 
	C940.845947,1001.212769 939.795776,1000.123291 938.521667,999.685730 
	C927.573242,995.925964 918.138062,990.110413 914.167786,978.689758 
	C911.925049,972.238281 910.414734,965.240479 910.192200,958.435852 
	C909.637024,941.461243 909.969360,924.456177 910.021729,907.463623 
	C910.046204,899.502563 913.656616,896.024719 921.660645,896.003967 
	C926.491943,895.991394 931.323181,895.995056 936.154480,896.002258 
	C944.921265,896.015198 947.978394,899.100159 947.992981,908.071045 
	C948.018982,924.064209 947.807678,940.060913 948.097046,956.048889 
	C948.212341,962.419617 949.240540,969.540710 956.807007,971.051392 
	C962.421204,972.172363 968.733887,971.901001 974.303406,970.514404 
	C979.309631,969.268127 981.007935,964.157898 981.008545,958.947693 
	C981.010315,943.621521 981.044983,928.295349 981.068481,912.969177 
	C981.070496,911.636475 980.961731,910.289551 981.113403,908.973328 
	C982.176636,899.748230 984.663269,895.261475 995.222412,895.947815 
	C1000.033569,896.260498 1004.883667,895.915771 1009.712219,896.032410 
	C1014.812927,896.155518 1018.876221,899.605164 1018.914429,904.579102 
	C1019.071228,925.009399 1019.890808,945.500000 1018.634521,965.855286 
	C1017.618042,982.324341 1008.593323,994.236938 991.936157,999.133972 
	C990.438477,999.574219 989.096375,1000.544006 987.841003,1001.633972 
	C972.979126,1002.000000 957.958191,1002.000000 942.468628,1002.000000 
z"/>
<path fill="#606062" opacity="1.000000" stroke="none" 
	d="
M639.468628,1002.000000 
	C636.882202,1001.022522 634.856201,999.611572 632.631165,999.140076 
	C620.853882,996.644592 617.348389,991.796448 619.049377,979.850159 
	C619.878540,974.026733 625.088684,971.239197 632.343811,972.027222 
	C643.499023,973.238953 654.699158,974.037964 665.881775,974.994385 
	C666.707886,975.065063 667.556519,975.077271 668.376770,974.974304 
	C671.895386,974.532654 676.196472,973.952026 676.621155,970.013855 
	C677.058289,965.960510 672.973511,964.949280 669.524414,963.865112 
	C657.132751,959.970154 644.562073,956.462463 632.549988,951.596497 
	C621.789001,947.237488 617.148499,937.509338 617.212830,926.433350 
	C617.278442,915.136169 622.658081,906.315613 633.130371,900.924622 
	C647.928467,893.306763 663.611084,892.869019 679.587769,894.843201 
	C685.621216,895.588745 691.681152,896.562866 697.544373,898.125427 
	C703.944214,899.831055 705.951416,903.104309 705.998169,909.758240 
	C706.006348,910.923767 705.902222,912.099060 706.015625,913.253540 
	C706.854431,921.796570 701.832153,924.942200 692.941101,923.878052 
	C683.278748,922.721619 673.579773,921.835205 663.877686,921.074402 
	C661.637451,920.898682 659.204102,921.397034 657.076477,922.176819 
	C655.562622,922.731689 653.179443,924.556885 653.352966,925.325012 
	C653.728333,926.986267 655.221924,929.128662 656.748352,929.656555 
	C661.078796,931.154114 665.624573,932.100464 670.141541,932.974060 
	C683.061646,935.472961 695.479309,938.731506 705.237976,948.612732 
	C714.243652,957.731567 715.101501,979.463928 705.247925,988.523438 
	C699.181641,994.100830 692.727600,998.146484 684.807129,1000.050110 
	C684.089905,1000.222473 683.477051,1000.829285 682.907837,1001.617188 
	C668.645752,1002.000000 654.291565,1002.000000 639.468628,1002.000000 
z"/>
<path fill="#6ABB2C" opacity="1.000000" stroke="none" 
	d="
M1.000001,363.468658 
	C1.802770,362.367767 2.995250,361.903198 3.350197,361.078278 
	C9.250776,347.365082 19.473772,338.721283 33.997303,335.626373 
	C60.027794,330.079346 84.569016,349.119568 86.213814,373.630798 
	C87.835022,397.790405 72.719559,415.537506 51.169315,419.541107 
	C32.084946,423.086609 13.113637,414.629242 4.265856,396.037994 
	C3.507496,394.444519 2.502186,392.968567 1.305803,391.718994 
	C1.000000,382.645782 1.000000,373.291534 1.000001,363.468658 
z"/>
<path fill="#000000" opacity="1.000000" stroke="none" 
	d="
M1510.750000,0.999982 
	C1510.755737,1.107341 1510.511597,1.214718 1510.133667,1.161047 
	C1510.000000,1.000000 1510.500000,1.000000 1510.750000,0.999982 
z"/>
<path fill="#36447C" opacity="1.000000" stroke="none" 
	d="
M1342.885742,634.651550 
	C1341.025635,645.348572 1339.801270,655.736206 1337.312744,665.811523 
	C1326.785400,708.430298 1299.333008,735.003296 1258.012207,747.991882 
	C1240.544678,753.482544 1222.659546,756.844055 1204.301392,756.974976 
	C1147.508423,757.380066 1090.714722,757.759460 1033.920654,757.940186 
	C1017.962463,757.991028 1001.940430,758.094849 986.055054,756.827759 
	C951.187256,754.046509 917.172729,747.468994 885.623169,731.250244 
	C862.728699,719.480774 843.761108,703.530518 831.608276,680.561646 
	C823.806152,665.815491 818.576172,650.030640 817.065857,633.291931 
	C815.800293,619.265869 813.875854,605.160889 814.291809,591.151672 
	C815.043945,565.816101 816.969788,540.543762 827.865540,516.859741 
	C837.502502,495.912048 851.245667,478.948547 870.880127,466.513947 
	C898.421570,449.071808 928.697510,439.885498 960.568542,434.913391 
	C982.406067,431.506561 1004.344116,429.893402 1026.447632,429.964539 
	C1067.445801,430.096466 1108.444458,430.002808 1149.442993,430.003113 
	C1151.399048,430.003143 1153.355225,430.003143 1155.961548,430.003143 
	C1155.630493,418.777740 1154.471313,408.416260 1149.913696,398.647369 
	C1140.515015,378.501160 1123.536743,367.564941 1103.279541,361.099670 
	C1088.407593,356.353180 1073.027100,353.953583 1057.344482,353.966278 
	C1043.581543,353.977448 1029.755493,353.165314 1016.070862,354.207764 
	C996.969116,355.662872 977.914673,358.103516 958.947998,360.864258 
	C939.169800,363.743103 919.622437,368.408905 899.788574,370.655243 
	C873.041138,373.684570 852.025757,360.048615 849.159302,330.499390 
	C847.830872,316.804779 847.618958,302.901489 848.181458,289.145172 
	C849.272888,262.453461 864.107117,241.505463 891.191162,235.041702 
	C911.392883,230.220444 931.897827,226.556534 952.389343,223.097427 
	C969.480347,220.212357 986.732788,218.250229 1003.944092,216.125320 
	C1011.992737,215.131622 1020.103760,214.302490 1028.202637,214.120285 
	C1052.658325,213.570129 1077.169067,212.260605 1101.571167,213.297897 
	C1138.872681,214.883499 1175.475952,221.081924 1210.953613,233.596344 
	C1234.352295,241.850006 1256.312256,252.427856 1275.749878,267.831421 
	C1307.899292,293.308655 1328.538574,326.298004 1337.634521,366.200500 
	C1342.202026,386.237457 1344.252441,406.628662 1344.129028,427.326538 
	C1343.765137,488.322113 1344.037964,549.321289 1343.952637,610.318909 
	C1343.941528,618.279236 1343.293213,626.238647 1342.885742,634.651550 
M1039.128296,641.204163 
	C1040.427246,641.462708 1041.728760,641.958618 1043.024780,641.944885 
	C1070.297852,641.656860 1097.598145,641.935181 1124.831177,640.716553 
	C1138.676025,640.097046 1150.213501,632.806152 1153.200317,616.801636 
	C1154.349121,610.645508 1155.716309,604.424927 1155.862427,598.207397 
	C1156.234009,582.396301 1155.979980,566.570312 1155.941895,550.750305 
	C1155.940063,549.976135 1155.609253,549.202759 1155.332764,547.998291 
	C1153.039185,547.998291 1150.905029,547.998291 1148.770874,547.998291 
	C1116.464233,547.998230 1084.154541,547.740662 1051.852783,548.137146 
	C1040.481812,548.276733 1029.027222,549.375793 1017.795349,551.183167 
	C1002.143982,553.701660 990.650330,561.654419 988.741638,580.748535 
	C987.885498,589.313843 987.422913,598.076050 988.215332,606.615906 
	C989.894165,624.707703 997.524536,633.419067 1015.172974,637.813171 
	C1022.658081,639.676758 1030.517212,640.037964 1039.128296,641.204163 
z"/>
<path fill="#33AC3E" opacity="1.000000" stroke="none" 
	d="
M695.115356,683.033813 
	C686.126831,693.328369 674.320129,700.031006 663.326904,707.730774 
	C657.429932,711.861206 651.004578,715.237122 644.050659,719.010254 
	C629.402771,722.609741 615.234497,722.044617 601.106201,721.993103 
	C515.043396,721.679321 428.980652,721.352173 342.917877,721.029480 
	C342.917877,721.029480 342.429321,720.958984 341.866272,720.757812 
	C336.062073,721.036926 330.822968,721.904724 325.579468,721.932373 
	C298.829895,722.073486 272.077393,722.160095 245.330399,721.863342 
	C239.841019,721.802429 234.370712,720.023682 228.891632,719.036743 
	C223.781708,707.190430 223.837738,695.073364 227.441895,682.502441 
	C231.799072,682.807190 235.705856,683.922119 239.613358,683.924683 
	C376.316925,684.014648 513.020569,684.029968 649.724182,683.957581 
	C664.854675,683.949585 679.984985,683.355896 695.115356,683.033813 
z"/>
<path fill="#74BE29" opacity="1.000000" stroke="none" 
	d="
M733.043701,291.886963 
	C736.885681,296.939484 740.906311,301.868439 744.512512,307.083923 
	C747.359741,311.201477 749.697205,315.671478 752.034302,320.642914 
	C749.600769,325.661346 745.503540,325.040863 741.740662,324.976166 
	C662.275269,323.609528 582.744019,328.043365 503.320557,322.365479 
	C501.945984,322.267242 500.444061,323.950348 498.591766,324.870300 
	C497.079742,324.885712 495.977539,324.833130 494.533936,324.640137 
	C491.472961,324.598236 488.753387,324.696686 485.658386,324.866272 
	C484.522736,324.899139 483.762451,324.860809 482.850403,324.588318 
	C480.798370,324.513184 478.898163,324.672211 476.673645,324.898560 
	C475.909851,325.005188 475.470306,325.044495 474.664368,324.898041 
	C470.514648,324.646515 466.713379,324.314056 462.951355,324.566498 
	C452.856445,325.243927 442.782013,326.831665 432.692993,326.887085 
	C386.111267,327.142975 339.527222,327.061279 292.944305,326.958099 
	C280.884521,326.931396 268.657684,328.430023 256.935852,324.032043 
	C249.086273,318.385925 241.107422,312.908295 233.439789,307.025055 
	C229.396622,303.922821 225.896469,300.112885 222.397308,296.369141 
	C227.045639,296.743866 231.447281,297.915924 235.850067,297.920288 
	C340.082642,298.022980 444.315369,298.000122 548.548035,297.999969 
	C607.990662,297.999878 667.433228,298.003265 726.875854,297.993683 
	C733.639832,297.992615 733.640442,297.957581 733.043701,291.886963 
z"/>
<path fill="#83C224" opacity="1.000000" stroke="none" 
	d="
M211.940598,237.958771 
	C219.652252,215.453720 242.729706,197.390762 267.602295,197.823029 
	C288.806183,198.191559 305.406891,206.310272 317.777435,223.321304 
	C319.956482,226.317734 321.511292,227.467972 325.424561,225.078064 
	C336.445801,218.347168 347.896179,212.318909 359.741455,206.296280 
	C361.548553,209.932297 364.329987,210.016663 367.286835,210.015869 
	C452.209290,209.993103 537.131714,210.016418 622.054077,209.912048 
	C624.741211,209.908752 627.426758,208.636551 630.113037,207.955887 
	C633.485779,209.339050 637.141663,210.271774 640.182068,212.183472 
	C653.214294,220.377563 666.065186,228.859955 678.709473,237.795105 
	C675.546875,238.901779 672.658325,239.920303 669.766968,239.928436 
	C631.790466,240.035431 593.813538,239.999969 555.836731,239.999969 
	C444.904480,239.999985 333.972198,240.019577 223.040070,239.913940 
	C219.339630,239.910416 215.640396,238.639130 211.940598,237.958771 
z"/>
<path fill="#3BAE3C" opacity="1.000000" stroke="none" 
	d="
M742.752441,628.983765 
	C735.882446,637.788635 729.012390,646.593506 721.577148,655.706848 
	C711.110229,656.676941 701.209106,657.904907 691.306824,657.914429 
	C558.707825,658.042297 426.108673,658.000061 293.509583,657.999878 
	C279.849884,657.999817 266.188568,657.879700 252.531357,658.063721 
	C247.992920,658.124878 245.424561,656.856018 245.958008,651.888672 
	C255.226929,644.899902 265.298584,638.772156 271.976868,628.210815 
	C277.083282,628.767700 281.504669,629.919373 285.926849,629.922302 
	C428.061157,630.016663 570.195557,630.020752 712.329895,629.956238 
	C722.470886,629.951660 732.611572,629.322510 742.752441,628.983765 
z"/>
<path fill="#39AD3C" opacity="1.000000" stroke="none" 
	d="
M245.657471,652.040771 
	C245.424561,656.856018 247.992920,658.124878 252.531357,658.063721 
	C266.188568,657.879700 279.849884,657.999817 293.509583,657.999878 
	C426.108673,658.000061 558.707825,658.042297 691.306824,657.914429 
	C701.209106,657.904907 711.110229,656.676941 721.410156,656.005249 
	C713.109497,664.908325 704.410645,673.821533 695.413574,682.884277 
	C679.984985,683.355896 664.854675,683.949585 649.724182,683.957581 
	C513.020569,684.029968 376.316925,684.014648 239.613358,683.924683 
	C235.705856,683.922119 231.799072,682.807190 227.530273,682.105225 
	C230.096313,670.150818 236.215698,660.249817 245.657471,652.040771 
z"/>
<path fill="#7ABF27" opacity="1.000000" stroke="none" 
	d="
M733.003418,291.540619 
	C733.640442,297.957581 733.639832,297.992615 726.875854,297.993683 
	C667.433228,298.003265 607.990662,297.999878 548.548035,297.999969 
	C444.315369,298.000122 340.082642,298.022980 235.850067,297.920288 
	C231.447281,297.915924 227.045639,296.743866 222.247620,296.064026 
	C215.973846,289.629211 212.473694,281.989929 210.493164,273.484924 
	C214.632828,273.807526 218.373428,274.923096 222.114609,274.925110 
	C383.972412,275.011871 545.830261,275.000061 707.688110,274.997345 
	C709.352966,274.997314 711.125427,275.308990 712.652832,274.840302 
	C714.225525,274.357666 715.559265,273.096649 716.997559,272.176208 
	C722.319397,278.515564 727.641235,284.854919 733.003418,291.540619 
z"/>
<path fill="#41B03A" opacity="1.000000" stroke="none" 
	d="
M742.930908,628.684875 
	C732.611572,629.322510 722.470886,629.951660 712.329895,629.956238 
	C570.195557,630.020752 428.061157,630.016663 285.926849,629.922302 
	C281.504669,629.919373 277.083282,628.767700 272.275299,628.055908 
	C274.521973,620.208862 277.154938,612.457520 280.357605,604.406006 
	C285.673492,604.737183 290.418091,605.902893 295.166107,605.917053 
	C341.322327,606.054932 387.479095,606.001038 433.635712,605.995911 
	C435.467896,605.995728 437.512543,606.439148 439.077332,605.776489 
	C440.945312,604.985352 442.402405,603.224060 444.432404,601.931519 
	C449.962585,603.528076 455.004669,605.640747 460.252502,606.507141 
	C471.373199,608.343201 482.648804,610.973877 493.772736,610.606750 
	C506.885956,610.173889 519.905945,606.915161 533.139893,605.212280 
	C536.202759,606.361633 539.090759,607.889465 541.981689,607.895203 
	C609.709717,608.029358 677.438110,607.998962 745.166382,607.999207 
	C748.455383,607.999207 751.744446,608.003052 755.033447,608.005127 
	C751.058716,614.798706 747.084045,621.592346 742.930908,628.684875 
z"/>
<path fill="#7FC125" opacity="1.000000" stroke="none" 
	d="
M211.621674,238.181976 
	C215.640396,238.639130 219.339630,239.910416 223.040070,239.913940 
	C333.972198,240.019577 444.904480,239.999985 555.836731,239.999969 
	C593.813538,239.999969 631.790466,240.035431 669.766968,239.928436 
	C672.658325,239.920303 675.546875,238.901779 678.770813,238.151840 
	C686.991333,244.395508 694.877747,250.840240 702.755371,257.936005 
	C700.051880,259.391144 697.359009,260.889526 694.662170,260.896667 
	C642.347290,261.035339 590.031860,260.999969 537.716614,260.999939 
	C431.586578,260.999878 325.456543,261.001373 219.326508,260.995819 
	C211.080750,260.995392 209.942703,260.087006 208.953186,252.931808 
	C209.736374,248.089600 210.519562,243.247406 211.621674,238.181976 
z"/>
<path fill="#58B632" opacity="1.000000" stroke="none" 
	d="
M136.224960,494.001495 
	C133.470856,480.988617 135.262680,468.470245 140.840668,456.400269 
	C143.680603,460.266876 147.431808,460.009460 151.133041,460.008820 
	C214.786423,459.997681 278.439880,460.042175 342.092987,459.914948 
	C346.674774,459.905792 351.254089,458.666473 355.900818,458.463623 
	C356.684235,470.941162 357.401428,482.954254 357.764893,495.134247 
	C354.011536,495.867340 350.612732,496.922058 347.212250,496.927307 
	C283.659210,497.025940 220.105988,496.998871 156.552795,497.001373 
	C149.627838,497.001648 142.588623,497.796051 136.224960,494.001495 
z"/>
<path fill="#4EB335" opacity="1.000000" stroke="none" 
	d="
M267.961243,562.103882 
	C260.448181,554.662964 252.845428,547.349670 242.789490,543.305298 
	C232.808762,539.291138 222.569122,537.510620 211.924591,539.978027 
	C184.426910,546.351990 162.515274,537.490662 145.541016,515.429077 
	C148.619339,515.415588 151.431000,515.953857 154.243042,515.955872 
	C221.710922,516.003784 289.178864,516.013245 356.646606,515.908508 
	C358.777466,515.905212 360.906403,514.617737 363.335327,514.147278 
	C365.812439,520.143005 367.344391,526.279053 370.309296,531.619568 
	C375.699432,541.328430 381.941193,550.564575 387.432526,560.097168 
	C384.733002,560.462646 382.427979,560.964844 380.124023,560.960022 
	C343.857208,560.883606 307.590515,560.728516 271.323700,560.678345 
	C270.203552,560.676819 269.082092,561.607727 267.961243,562.103882 
z"/>
<path fill="#2CAA40" opacity="1.000000" stroke="none" 
	d="
M343.117981,721.318604 
	C428.980652,721.352173 515.043396,721.679321 601.106201,721.993103 
	C615.234497,722.044617 629.402771,722.609741 643.696716,719.054077 
	C639.612488,721.690125 635.270142,724.657227 630.592407,726.935669 
	C603.476624,740.143921 575.182678,749.834290 545.217102,753.930420 
	C533.480103,755.534851 521.596924,756.130432 509.764191,756.954224 
	C501.833038,757.506287 493.868500,758.023560 485.927673,757.914612 
	C449.542053,757.415222 413.981323,752.016113 380.058167,738.356201 
	C367.585785,733.333923 355.551941,727.222412 343.117981,721.318604 
z"/>
<path fill="#7DC026" opacity="1.000000" stroke="none" 
	d="
M208.617188,253.192322 
	C209.942703,260.087006 211.080750,260.995392 219.326508,260.995819 
	C325.456543,261.001373 431.586578,260.999878 537.716614,260.999939 
	C590.031860,260.999969 642.347290,261.035339 694.662170,260.896667 
	C697.359009,260.889526 700.051880,259.391144 702.894653,258.237122 
	C707.494019,262.532562 711.945374,267.177887 716.697144,271.999695 
	C715.559265,273.096649 714.225525,274.357666 712.652832,274.840302 
	C711.125427,275.308990 709.352966,274.997314 707.688110,274.997345 
	C545.830261,275.000061 383.972412,275.011871 222.114609,274.925110 
	C218.373428,274.923096 214.632828,273.807526 210.530212,273.105347 
	C209.539368,266.483887 208.910278,259.968353 208.617188,253.192322 
z"/>
<path fill="#44B138" opacity="1.000000" stroke="none" 
	d="
M755.317383,607.795776 
	C751.744446,608.003052 748.455383,607.999207 745.166382,607.999207 
	C677.438110,607.998962 609.709717,608.029358 541.981689,607.895203 
	C539.090759,607.889465 536.202759,606.361633 533.359741,604.910889 
	C537.871155,602.745850 542.441772,601.463318 546.782654,599.635071 
	C562.991638,592.808289 577.699463,583.666016 590.134766,571.199707 
	C592.876038,572.676758 595.444580,574.849060 598.007935,574.842957 
	C655.613159,574.705811 713.217834,574.329285 770.822571,573.997864 
	C767.267517,582.110535 763.750549,590.240234 760.138062,598.327271 
	C758.737122,601.463440 757.119995,604.502930 755.317383,607.795776 
z"/>
<path fill="#3BAE3C" opacity="1.000000" stroke="none" 
	d="
M194.830078,622.998535 
	C198.057556,646.063171 189.153015,664.497131 172.062332,679.013489 
	C162.776825,686.900269 151.367203,690.482727 138.846756,691.142151 
	C119.986717,692.135437 104.221420,685.846802 91.287323,672.592712 
	C81.690720,662.758667 75.885559,650.826111 75.004837,636.860779 
	C74.771156,633.155457 74.821495,629.432251 75.413788,625.357544 
	C112.295189,624.998474 148.504425,625.051880 184.712936,624.912476 
	C188.087723,624.899475 191.457809,623.665588 194.830078,622.998535 
z"/>
<path fill="#88C322" opacity="1.000000" stroke="none" 
	d="
M630.060547,207.568054 
	C627.426758,208.636551 624.741211,209.908752 622.054077,209.912048 
	C537.131714,210.016418 452.209290,209.993103 367.286835,210.015869 
	C364.329987,210.016663 361.548553,209.932297 360.104675,206.268555 
	C372.098663,200.979568 384.133484,195.547150 396.541260,191.172470 
	C405.712341,187.938950 415.270996,185.569107 424.834167,183.741684 
	C437.335907,181.352722 449.958313,178.994965 462.626495,178.219559 
	C481.166840,177.084747 499.793488,177.199188 518.384216,177.154480 
	C523.397217,177.142410 528.408142,178.518051 533.429504,179.185379 
	C538.301697,179.832855 543.242737,180.100769 548.052856,181.047089 
	C556.971680,182.801727 565.880432,184.685593 574.675903,186.968246 
	C583.946228,189.374146 593.195068,191.976120 602.234924,195.120148 
	C609.254211,197.561401 615.940430,200.961761 622.769287,203.948105 
	C625.190369,205.006851 627.595581,206.101791 630.060547,207.568054 
z"/>
<path fill="#7FC125" opacity="1.000000" stroke="none" 
	d="
M110.160683,292.331421 
	C96.797028,293.950989 84.462975,292.860779 73.669960,284.304749 
	C62.601120,275.530060 58.493759,263.841431 58.625782,250.240265 
	C58.743683,238.094452 62.206631,227.304565 71.567406,218.928894 
	C83.787872,207.994476 98.201347,205.213440 113.445923,209.458099 
	C128.799515,213.733124 138.974274,224.477890 142.862900,239.989792 
	C147.940002,260.242523 138.727234,281.372284 119.449326,289.643555 
	C116.644608,290.846924 113.519646,291.303955 110.160683,292.331421 
z"/>
<path fill="#54B533" opacity="1.000000" stroke="none" 
	d="
M789.829407,494.999695 
	C788.218201,505.400574 786.607056,515.801453 784.498413,526.624023 
	C779.359070,527.363037 774.717590,527.949036 770.075134,527.955994 
	C724.087585,528.024719 678.099609,528.052551 632.112427,527.909180 
	C627.709167,527.895447 623.309692,526.645569 618.949219,525.584229 
	C621.716431,515.131958 624.442993,505.065125 627.576050,495.052551 
	C631.458252,495.404510 634.933655,495.956665 638.409790,495.961273 
	C682.573853,496.019989 726.738037,496.039551 770.902039,495.955505 
	C777.211731,495.943512 783.520325,495.333130 789.829407,494.999695 
z"/>
<path fill="#6ABB2C" opacity="1.000000" stroke="none" 
	d="
M773.027771,364.931122 
	C776.324219,375.359619 779.620667,385.788147 782.478699,396.706390 
	C779.068298,397.463898 776.096619,397.962189 773.124329,397.965118 
	C724.007141,398.013458 674.889954,397.978851 625.772766,398.031555 
	C620.857300,398.036804 616.104248,398.224152 612.767395,393.557892 
	C612.122192,392.655640 610.427917,392.503693 609.053467,391.690765 
	C603.556580,383.929169 598.223816,376.482483 593.366577,369.029633 
	C649.653992,369.015594 705.465942,369.008789 761.277893,368.995544 
	C763.276245,368.995056 765.456726,369.423706 767.225891,368.769501 
	C769.343384,367.986420 771.109497,366.252960 773.027771,364.931122 
z"/>
<path fill="#44B138" opacity="1.000000" stroke="none" 
	d="
M194.890701,622.594849 
	C191.457809,623.665588 188.087723,624.899475 184.712936,624.912476 
	C148.504425,625.051880 112.295189,624.998474 75.628464,624.997314 
	C75.959091,608.187439 83.221611,594.660645 96.311348,584.328430 
	C104.125748,578.160217 112.842613,573.620667 122.762718,571.667358 
	C134.636932,569.329285 146.114777,570.403015 157.444397,574.735779 
	C166.517548,578.205688 174.219528,583.830566 180.603867,590.707397 
	C186.631577,597.200195 191.136047,605.102173 193.014725,614.106384 
	C193.580444,616.817932 194.301437,619.497131 194.890701,622.594849 
z"/>
<path fill="#6DBC2B" opacity="1.000000" stroke="none" 
	d="
M152.200317,315.991333 
	C173.652100,315.987396 187.838104,325.350647 193.408676,342.879150 
	C202.221909,370.611115 180.037949,398.344513 151.290726,394.835846 
	C132.129074,392.497070 117.087257,377.783813 116.926399,356.784027 
	C116.807030,341.200531 121.981339,328.548096 135.983292,320.883057 
	C140.708466,318.296356 146.451355,317.568726 152.200317,315.991333 
z"/>
<path fill="#54B533" opacity="1.000000" stroke="none" 
	d="
M91.704681,472.355682 
	C102.505615,485.710205 105.200211,500.238037 97.894257,515.458374 
	C90.997589,529.825989 79.103279,537.392639 62.775925,538.069763 
	C41.049301,538.970703 21.600264,520.577515 22.125084,498.351990 
	C22.656622,475.842072 39.637650,460.370911 61.111137,459.898132 
	C73.157616,459.632935 82.934753,464.069672 91.704681,472.355682 
z"/>
<path fill="#5EB830" opacity="1.000000" stroke="none" 
	d="
M355.834534,457.999146 
	C351.254089,458.666473 346.674774,459.905792 342.092987,459.914948 
	C278.439880,460.042175 214.786423,459.997681 151.133041,460.008820 
	C147.431808,460.009460 143.680603,460.266876 141.150711,456.195221 
	C144.680954,446.992584 150.517532,439.751282 158.802277,434.282532 
	C162.046295,435.360443 164.752686,436.889160 167.462540,436.895386 
	C227.279770,437.031860 287.097412,437.018921 346.914917,436.957062 
	C350.887787,436.952942 354.860016,436.333038 358.893494,436.407654 
	C357.914459,443.876862 356.874512,450.938019 355.834534,457.999146 
z"/>
<path fill="#71BD2A" opacity="1.000000" stroke="none" 
	d="
M499.001556,324.802246 
	C500.444061,323.950348 501.945984,322.267242 503.320557,322.365479 
	C582.744019,328.043365 662.275269,323.609528 741.740662,324.976166 
	C745.503540,325.040863 749.600769,325.661346 751.986328,320.961731 
	C756.103333,328.144440 760.041382,335.666290 763.690186,343.763672 
	C760.004211,344.892670 756.608215,345.923157 753.210571,345.928772 
	C693.833984,346.027069 634.457153,345.996460 575.080383,346.010101 
	C572.089172,346.010773 569.098022,346.157928 566.011597,346.201080 
	C565.916321,346.165283 565.910950,345.965973 565.759399,345.796997 
	C565.397095,345.409821 565.171448,345.208405 564.574097,344.981018 
	C563.464417,344.612427 562.658630,344.372833 561.966064,343.948303 
	C542.637817,332.099945 521.626648,325.801056 499.001556,324.802246 
z"/>
<path fill="#5EB830" opacity="1.000000" stroke="none" 
	d="
M789.830688,443.998840 
	C790.206726,452.021454 790.582703,460.044037 790.569885,468.664978 
	C786.926392,470.175018 783.674561,471.868713 780.416626,471.880768 
	C733.871338,472.053284 687.325195,471.957214 640.779602,472.064819 
	C636.274902,472.075256 632.206299,471.750061 629.107910,467.532471 
	C628.667297,459.389008 628.290344,451.708649 628.327026,444.114929 
	C631.879578,444.467560 635.018127,444.962006 638.157288,444.965363 
	C684.747986,445.015106 731.338806,445.024017 777.929443,444.956421 
	C781.896973,444.950684 785.863647,444.332520 789.830688,443.998840 
z"/>
<path fill="#6DBC2B" opacity="1.000000" stroke="none" 
	d="
M566.106812,346.236877 
	C569.098022,346.157928 572.089172,346.010773 575.080383,346.010101 
	C634.457153,345.996460 693.833984,346.027069 753.210571,345.928772 
	C756.608215,345.923157 760.004211,344.892670 763.723206,344.126190 
	C767.025696,350.665955 770.005920,357.418701 773.006958,364.551270 
	C771.109497,366.252960 769.343384,367.986420 767.225891,368.769501 
	C765.456726,369.423706 763.276245,368.995056 761.277893,368.995544 
	C705.465942,369.008789 649.653992,369.015594 593.065857,368.889832 
	C584.384705,360.293243 576.830383,351.422638 566.106812,346.236877 
z"/>
<path fill="#4AB237" opacity="1.000000" stroke="none" 
	d="
M770.991699,573.671875 
	C713.217834,574.329285 655.613159,574.705811 598.007935,574.842957 
	C595.444580,574.849060 592.876038,572.676758 590.280640,570.895142 
	C596.152832,562.478271 602.054382,554.685486 608.079285,547.244141 
	C609.878967,551.690063 613.526489,550.974792 616.762512,550.976929 
	C666.017334,551.009094 715.272278,551.057129 764.526672,550.913269 
	C769.586060,550.898499 774.641846,549.678650 779.699341,549.018005 
	C776.853149,557.127319 774.007019,565.236572 770.991699,573.671875 
z"/>
<path fill="#54B533" opacity="1.000000" stroke="none" 
	d="
M363.036224,513.928955 
	C360.906403,514.617737 358.777466,515.905212 356.646606,515.908508 
	C289.178864,516.013245 221.710922,516.003784 154.243042,515.955872 
	C151.431000,515.953857 148.619339,515.415588 145.384247,515.134399 
	C142.107986,508.337677 139.254974,501.533813 136.313477,494.365723 
	C142.588623,497.796051 149.627838,497.001648 156.552795,497.001373 
	C220.105988,496.998871 283.659210,497.025940 347.212250,496.927307 
	C350.612732,496.922058 354.011536,495.867340 358.078125,495.364471 
	C360.175507,501.594818 361.605865,507.761902 363.036224,513.928955 
z"/>
<path fill="#71BD2A" opacity="1.000000" stroke="none" 
	d="
M257.083405,324.335327 
	C268.657684,328.430023 280.884521,326.931396 292.944305,326.958099 
	C339.527222,327.061279 386.111267,327.142975 432.692993,326.887085 
	C442.782013,326.831665 452.856445,325.243927 462.951355,324.566498 
	C466.713379,324.314056 470.514648,324.646515 474.418335,325.223816 
	C469.218262,326.667267 463.831177,327.321716 458.589447,328.581207 
	C440.203827,332.998962 423.799896,341.771057 407.636871,352.035828 
	C362.171173,352.019043 317.181183,352.009277 272.191162,351.999481 
	C269.816986,341.450714 264.620392,332.445160 257.083405,324.335327 
z"/>
<path fill="#6ABB2C" opacity="1.000000" stroke="none" 
	d="
M272.289124,352.392944 
	C317.181183,352.009277 362.171173,352.019043 407.491486,352.339844 
	C396.801361,363.193848 386.208038,374.105957 377.707275,386.914276 
	C373.805908,386.144379 370.238464,385.094879 366.666138,385.078033 
	C337.935638,384.942383 309.203857,385.064819 280.473541,384.911774 
	C277.276306,384.894745 274.085632,383.648132 270.891937,382.971771 
	C271.907654,377.574310 273.455414,372.208252 273.776093,366.769806 
	C274.048370,362.152039 272.904449,357.450714 272.289124,352.392944 
z"/>
<path fill="#60B82F" opacity="1.000000" stroke="none" 
	d="
M358.832581,435.999573 
	C354.860016,436.333038 350.887787,436.952942 346.914917,436.957062 
	C287.097412,437.018921 227.279770,437.031860 167.462540,436.895386 
	C164.752686,436.889160 162.046295,435.360443 159.144409,434.217712 
	C165.586212,426.897552 174.358337,423.742462 183.346161,422.302277 
	C191.011642,421.073975 199.190552,421.001770 206.851852,422.230072 
	C221.883224,424.639893 235.119492,421.126343 247.509155,412.968323 
	C249.828400,411.441223 252.066391,409.790680 254.661896,408.464935 
	C254.612762,413.508270 257.572449,414.040924 261.357483,414.031372 
	C286.801697,413.967255 312.247040,414.118469 337.690186,413.940369 
	C347.286163,413.873199 357.277100,415.981903 366.059143,410.426971 
	C363.621246,419.211182 361.226898,427.605377 358.832581,435.999573 
z"/>
<path fill="#60B82F" opacity="1.000000" stroke="none" 
	d="
M789.895264,443.558350 
	C785.863647,444.332520 781.896973,444.950684 777.929443,444.956421 
	C731.338806,445.024017 684.747986,445.015106 638.157288,444.965363 
	C635.018127,444.962006 631.879578,444.467560 628.011047,443.870422 
	C625.584290,436.025665 623.887268,428.511993 622.646973,420.998535 
	C674.138550,420.999115 725.173523,421.039154 776.208130,420.913666 
	C779.751282,420.904968 783.291443,419.665710 786.833008,418.998657 
	C787.875244,427.038422 788.917480,435.078156 789.895264,443.558350 
z"/>
<path fill="#4EB335" opacity="1.000000" stroke="none" 
	d="
M779.815247,548.628418 
	C774.641846,549.678650 769.586060,550.898499 764.526672,550.913269 
	C715.272278,551.057129 666.017334,551.009094 616.762512,550.976929 
	C613.526489,550.974792 609.878967,551.690063 608.115967,546.889648 
	C611.655640,539.445740 615.282043,532.707642 618.908508,525.969543 
	C623.309692,526.645569 627.709167,527.895447 632.112427,527.909180 
	C678.099609,528.052551 724.087585,528.024719 770.075134,527.955994 
	C774.717590,527.949036 779.359070,527.363037 784.415039,527.019897 
	C783.196350,534.075684 781.563782,541.157288 779.815247,548.628418 
z"/>
<path fill="#58B632" opacity="1.000000" stroke="none" 
	d="
M629.171631,467.995575 
	C632.206299,471.750061 636.274902,472.075256 640.779602,472.064819 
	C687.325195,471.957214 733.871338,472.053284 780.416626,471.880768 
	C783.674561,471.868713 786.926392,470.175018 790.506470,469.129486 
	C790.540649,477.364990 790.249390,485.734283 789.893799,494.551636 
	C783.520325,495.333130 777.211731,495.943512 770.902039,495.955505 
	C726.738037,496.039551 682.573853,496.019989 638.409790,495.961273 
	C634.933655,495.956665 631.458252,495.404510 627.518066,494.635681 
	C627.759583,485.441559 628.465637,476.718567 629.171631,467.995575 
z"/>
<path fill="#64B92E" opacity="1.000000" stroke="none" 
	d="
M786.897217,418.574829 
	C783.291443,419.665710 779.751282,420.904968 776.208130,420.913666 
	C725.173523,421.039154 674.138550,420.999115 622.560303,420.623657 
	C617.750427,410.834259 613.483948,401.419952 609.217529,392.005676 
	C610.427917,392.503693 612.122192,392.655640 612.767395,393.557892 
	C616.104248,398.224152 620.857300,398.036804 625.772766,398.031555 
	C674.889954,397.978851 724.007141,398.013458 773.124329,397.965118 
	C776.096619,397.962189 779.068298,397.463898 782.435303,397.096863 
	C784.207275,404.048706 785.584351,411.099854 786.897217,418.574829 
z"/>
<path fill="#44B138" opacity="1.000000" stroke="none" 
	d="
M444.037506,601.882996 
	C442.402405,603.224060 440.945312,604.985352 439.077332,605.776489 
	C437.512543,606.439148 435.467896,605.995728 433.635712,605.995911 
	C387.479095,606.001038 341.322327,606.054932 295.166107,605.917053 
	C290.418091,605.902893 285.673492,604.737183 280.547607,604.052734 
	C279.442108,596.618408 278.716339,589.237122 278.311951,581.558777 
	C281.233215,582.171448 283.829620,583.862244 286.433380,583.873657 
	C325.015625,584.042664 363.598999,584.019714 402.181641,583.898804 
	C404.136047,583.892700 406.086395,582.587341 408.389160,581.946167 
	C420.505615,588.631348 432.271576,595.257141 444.037506,601.882996 
z"/>
<path fill="#64B92E" opacity="1.000000" stroke="none" 
	d="
M366.102692,410.036987 
	C357.277100,415.981903 347.286163,413.873199 337.690186,413.940369 
	C312.247040,414.118469 286.801697,413.967255 261.357483,414.031372 
	C257.572449,414.040924 254.612762,413.508270 254.970917,408.310242 
	C261.665527,400.712341 267.173431,392.787933 270.592346,383.170776 
	C274.085632,383.648132 277.276306,384.894745 280.473541,384.911774 
	C309.203857,385.064819 337.935638,384.942383 366.666138,385.078033 
	C370.238464,385.094879 373.805908,386.144379 377.678589,387.268066 
	C376.656586,390.030975 375.223175,392.184326 374.028595,394.462891 
	C371.324066,399.621460 368.737305,404.841766 366.102692,410.036987 
z"/>
<path fill="#2CAA40" opacity="1.000000" stroke="none" 
	d="
M228.938782,719.410645 
	C234.370712,720.023682 239.841019,721.802429 245.330399,721.863342 
	C272.077393,722.160095 298.829895,722.073486 325.579468,721.932373 
	C330.822968,721.904724 336.062073,721.036926 341.629944,720.686523 
	C336.594696,732.400330 329.123169,742.140076 318.317841,749.304016 
	C310.806427,754.284119 302.543304,757.034607 293.824036,757.811035 
	C273.292358,759.639404 254.168259,756.085449 240.278992,739.190369 
	C235.587677,733.483765 232.698654,726.295593 228.938782,719.410645 
z"/>
<path fill="#4AB237" opacity="1.000000" stroke="none" 
	d="
M408.038635,581.886841 
	C406.086395,582.587341 404.136047,583.892700 402.181641,583.898804 
	C363.598999,584.019714 325.015625,584.042664 286.433380,583.873657 
	C283.829620,583.862244 281.233215,582.171448 278.290344,581.143677 
	C274.663727,574.945618 271.380157,568.865601 268.028900,562.444824 
	C269.082092,561.607727 270.203552,560.676819 271.323700,560.678345 
	C307.590515,560.728516 343.857208,560.883606 380.124023,560.960022 
	C382.427979,560.964844 384.733002,560.462646 387.593872,560.402588 
	C394.779694,567.701477 401.409149,574.794128 408.038635,581.886841 
z"/>
<path fill="#606062" opacity="1.000000" stroke="none" 
	d="
M960.384888,863.369629 
	C966.812134,850.011108 974.051086,846.673218 987.554626,849.708252 
	C994.446167,851.257202 996.280029,856.199402 993.101929,862.299377 
	C989.913513,868.419312 986.365845,874.488037 982.041931,879.822388 
	C979.926880,882.431641 975.834045,883.791138 972.370789,884.837830 
	C969.782166,885.620239 966.767456,885.041199 963.943970,884.989258 
	C956.216919,884.847046 952.943115,879.875549 955.914673,872.634277 
	C957.167236,869.581787 958.757446,866.667847 960.384888,863.369629 
z"/>
<path fill="#000000" opacity="1.000000" stroke="none" 
	d="
M1137.005859,944.001343 
	C1137.015747,951.162842 1137.117310,957.826294 1137.006714,964.486206 
	C1136.919312,969.760498 1135.031006,971.782959 1129.857300,971.969971 
	C1125.719971,972.119446 1121.448853,972.408875 1117.445557,971.601990 
	C1109.728027,970.046387 1105.595215,963.881348 1105.102295,953.510437 
	C1104.875977,948.745911 1105.655273,943.939880 1105.854126,939.147522 
	C1106.229980,930.095032 1111.623901,925.964600 1121.899780,925.064697 
	C1136.980835,923.743835 1137.005859,924.029663 1137.005859,939.004639 
	C1137.005859,940.503662 1137.005859,942.002747 1137.005859,944.001343 
z"/>
<path fill="#000000" opacity="1.000000" stroke="none" 
	d="
M792.180603,972.309875 
	C792.044128,967.702515 790.662231,962.881226 796.408203,961.124023 
	C798.590149,960.456848 800.944885,960.127075 803.231201,960.072510 
	C809.197266,959.929932 815.168945,960.024536 821.870056,960.024536 
	C821.870056,964.262085 822.532227,968.332886 821.606995,972.003601 
	C821.099731,974.015808 818.057495,976.498657 815.906982,976.768799 
	C810.503784,977.447510 804.906921,977.424438 799.491333,976.793213 
	C796.964905,976.498779 794.678711,974.143433 792.180603,972.309875 
z"/>
<path fill="#000000" opacity="1.000000" stroke="none" 
	d="
M1277.765503,937.976440 
	C1272.396606,938.355469 1267.487427,938.721497 1261.981812,939.132080 
	C1262.777954,932.450134 1263.445190,926.505310 1269.129517,922.967346 
	C1275.703735,918.875488 1282.696533,918.835449 1289.510742,922.322449 
	C1292.961060,924.088013 1295.421265,930.762085 1293.737793,934.193665 
	C1293.036987,935.622375 1290.465820,936.533875 1288.592651,936.899780 
	C1285.197144,937.562988 1281.687378,937.641235 1277.765503,937.976440 
z"/>
<path fill="#000000" opacity="1.000000" stroke="none" 
	d="
M1038.667358,641.143066 
	C1030.517212,640.037964 1022.658081,639.676758 1015.172974,637.813171 
	C997.524536,633.419067 989.894165,624.707703 988.215332,606.615906 
	C987.422913,598.076050 987.885498,589.313843 988.741638,580.748535 
	C990.650330,561.654419 1002.143982,553.701660 1017.795349,551.183167 
	C1029.027222,549.375793 1040.481812,548.276733 1051.852783,548.137146 
	C1084.154541,547.740662 1116.464233,547.998230 1148.770874,547.998291 
	C1150.905029,547.998291 1153.039185,547.998291 1155.332764,547.998291 
	C1155.609253,549.202759 1155.940063,549.976135 1155.941895,550.750305 
	C1155.979980,566.570312 1156.234009,582.396301 1155.862427,598.207397 
	C1155.716309,604.424927 1154.349121,610.645508 1153.200317,616.801636 
	C1150.213501,632.806152 1138.676025,640.097046 1124.831177,640.716553 
	C1097.598145,641.935181 1070.297852,641.656860 1043.024780,641.944885 
	C1041.728760,641.958618 1040.427246,641.462708 1038.667358,641.143066 
z"/>
<path fill="#000000" opacity="1.000000" stroke="none" 
	d="
M408.389160,581.946167 
	C401.409149,574.794128 394.779694,567.701477 387.988892,560.303345 
	C381.941193,550.564575 375.699432,541.328430 370.309296,531.619568 
	C367.344391,526.279053 365.812439,520.143005 363.335327,514.147278 
	C361.605865,507.761902 360.175507,501.594818 358.431885,495.197540 
	C357.401428,482.954254 356.684235,470.941162 355.900787,458.463623 
	C356.874512,450.938019 357.914459,443.876862 358.893494,436.407654 
	C361.226898,427.605377 363.621246,419.211182 366.059143,410.426971 
	C368.737305,404.841766 371.324066,399.621460 374.028595,394.462891 
	C375.223175,392.184326 376.656586,390.030975 378.010284,387.466980 
	C386.208038,374.105957 396.801361,363.193848 407.967163,352.346832 
	C423.799896,341.771057 440.203827,332.998962 458.589447,328.581207 
	C463.831177,327.321716 469.218262,326.667267 474.784729,325.409607 
	C475.470306,325.044495 475.909851,325.005188 477.098755,324.965942 
	C479.566132,324.918182 481.284149,324.870331 483.002167,324.822510 
	C483.762451,324.860809 484.522736,324.899139 486.099426,324.933167 
	C489.568970,324.879395 492.222137,324.829956 494.875305,324.780518 
	C495.977539,324.833130 497.079742,324.885712 498.591766,324.870300 
	C521.626648,325.801056 542.637817,332.099945 561.966064,343.948303 
	C562.658630,344.372833 563.464417,344.612427 564.668335,345.202667 
	C565.302124,345.761902 565.566040,345.928192 565.910950,345.965973 
	C565.910950,345.965973 565.916321,346.165283 566.011597,346.201080 
	C576.830383,351.422638 584.384705,360.293243 592.590332,368.895996 
	C598.223816,376.482483 603.556580,383.929169 609.053467,391.690735 
	C613.483948,401.419952 617.750427,410.834259 622.103577,420.623413 
	C623.887268,428.511993 625.584290,436.025665 627.597412,443.783813 
	C628.290344,451.708649 628.667297,459.389008 629.107910,467.532471 
	C628.465637,476.718567 627.759583,485.441559 627.111572,494.581421 
	C624.442993,505.065125 621.716431,515.131958 618.949219,525.584229 
	C615.282043,532.707642 611.655640,539.445740 607.992554,546.538269 
	C602.054382,554.685486 596.152832,562.478271 590.105408,570.575684 
	C577.699463,583.666016 562.991638,592.808289 546.782654,599.635071 
	C542.441772,601.463318 537.871155,602.745850 533.186157,604.580322 
	C519.905945,606.915161 506.885956,610.173889 493.772736,610.606750 
	C482.648804,610.973877 471.373199,608.343201 460.252502,606.507141 
	C455.004669,605.640747 449.962585,603.528076 444.432404,601.931519 
	C432.271576,595.257141 420.505615,588.631348 408.389160,581.946167 
z"/>
<path fill="#71BD2A" opacity="1.000000" stroke="none" 
	d="
M482.850403,324.588318 
	C481.284149,324.870331 479.566132,324.918182 477.423035,324.898621 
	C478.898163,324.672211 480.798370,324.513184 482.850403,324.588318 
z"/>
<path fill="#71BD2A" opacity="1.000000" stroke="none" 
	d="
M494.533936,324.640137 
	C492.222137,324.829956 489.568970,324.879395 486.474792,324.861969 
	C488.753387,324.696686 491.472961,324.598236 494.533936,324.640137 
z"/>
<path fill="#6DBC2B" opacity="1.000000" stroke="none" 
	d="
M565.759399,345.796997 
	C565.566040,345.928192 565.302124,345.761902 565.024963,345.245483 
	C565.171448,345.208405 565.397095,345.409821 565.759399,345.796997 
z"/>
</svg>