<svg 
  xmlns="http://www.w3.org/2000/svg" xmlns:xlink="http://www.w3.org/1999/xlink" width="56" 
  zoomAndPan="magnify" 
  viewBox="0 0 810 809.999993" 
  height="56" 
  preserveAspectRatio="xMidYMid meet" 
  version="1.0"
  >
  <defs>
    <clipPath id="b691c51610">
      <path 
        d="M 0 0 L 809.351562 0 L 809.351562 809.351562 L 0 809.351562 Z M 0 0 " clip-rule="nonzero"
      />
    </clipPath>
    <clipPath id="a06b78f2c8">
      <path 
        d="M 197 224 L 561 224 L 561 598.890625 L 197 598.890625 Z M 197 224 " clip-rule="nonzero"
      />
    </clipPath>
  </defs>
  <g clip-path="url(#b691c51610)">
    <path 
      fill="#36447c" 
      d="M 404.675781 809.351562 C 296.632812 809.351562 194.898438 767.300781 118.554688 690.796875 C 42.050781 614.453125 0 512.71875 0 404.675781 C 0 296.632812 42.050781 194.898438 118.554688 118.554688 C 194.898438 42.054688 296.632812 0 404.675781 0 C 512.71875 0 614.453125 42.054688 690.796875 118.554688 C 767.300781 195.058594 809.351562 296.632812 809.351562 404.675781 C 809.351562 512.71875 767.300781 614.453125 690.796875 690.796875 C 614.453125 767.300781 512.71875 809.351562 404.675781 809.351562 Z M 404.675781 24.261719 C 303.101562 24.261719 207.515625 63.886719 135.699219 135.699219 C 63.886719 207.515625 24.261719 303.101562 24.261719 404.675781 C 24.261719 506.25 63.886719 601.839844 135.699219 673.652344 C 207.515625 745.464844 303.101562 785.089844 404.675781 785.089844 C 506.25 785.089844 601.839844 745.464844 673.652344 673.652344 C 745.464844 601.839844 785.089844 506.25 785.089844 404.675781 C 785.089844 303.101562 745.464844 207.515625 673.652344 135.699219 C 601.839844 63.886719 506.25 24.261719 404.675781 24.261719 Z M 404.675781 24.261719 " 
      fill-opacity="1" 
      fill-rule="nonzero"
    />
  </g>
  <g clip-path="url(#a06b78f2c8)">
    <path 
      fill="#36447c" 
      d="M 214.121094 557.386719 L 214.039062 557.386719 Z M 498.265625 242.167969 C 501.859375 242.167969 505.257812 243.792969 508.949219 247.027344 C 509.355469 247.40625 514.636719 252.417969 518.074219 255.6875 L 521.074219 258.519531 C 538.601562 274.898438 546.550781 304.371094 541.320312 333.628906 C 539.640625 343.078125 536.921875 352.871094 533.246094 362.722656 C 514.71875 412.445312 479.550781 455.671875 453.304688 483.191406 C 427.179688 510.890625 385.859375 548.296875 337.175781 569.445312 C 327.519531 573.636719 317.882812 576.875 308.535156 579.0625 C 279.578125 585.84375 249.695312 579.492188 232.40625 562.882812 L 229.523438 560.144531 C 226.179688 556.988281 220.957031 552.046875 220.199219 551.320312 C 209.429688 540.253906 214.8125 531.050781 236.40625 509.105469 L 241.808594 503.5625 C 255.488281 489.378906 278.4375 465.621094 297.84375 467.941406 C 303.117188 468.5625 308.625 472.410156 314.457031 476.472656 C 320.242188 480.507812 326.222656 484.675781 333.394531 486.949219 C 352.65625 493.050781 372.1875 489.039062 388.417969 475.675781 C 398.117188 467.683594 407.992188 458.335938 416.957031 448.660156 C 426.03125 439.320312 434.839844 428.972656 442.296875 418.871094 C 454.777344 401.96875 457.730469 382.265625 450.613281 363.367188 C 447.957031 356.328125 443.46875 350.585938 439.125 345.027344 C 434.75 339.425781 430.613281 334.140625 429.714844 328.90625 C 426.375 309.621094 448.871094 285.5 462.316406 271.082031 L 467.554688 265.394531 C 481.804688 249.824219 490.46875 242.167969 498.265625 242.167969 Z M 285.167969 598.890625 C 294.847656 598.890625 304.152344 597.710938 312.453125 595.769531 C 322.800781 593.355469 333.425781 589.785156 344.027344 585.183594 C 395.378906 562.882812 438.574219 523.832031 465.769531 495 C 493.09375 466.355469 529.800781 421.15625 549.339844 368.714844 C 553.378906 357.894531 556.363281 347.105469 558.230469 336.644531 C 563.183594 308.925781 559.109375 270.546875 532.804688 245.992188 L 529.898438 243.230469 C 526.238281 239.761719 520.542969 234.355469 520.308594 234.152344 C 493.996094 211.0625 470.449219 236.789062 454.882812 253.820312 L 449.75 259.382812 C 434.132812 276.125 408 304.15625 412.785156 331.832031 C 414.429688 341.300781 420.359375 348.898438 425.585938 355.59375 C 429.300781 360.339844 432.8125 364.832031 434.539062 369.417969 C 439.613281 382.871094 437.511719 396.449219 428.476562 408.679688 C 421.46875 418.164062 413.175781 427.90625 404.496094 436.851562 C 395.90625 446.121094 386.609375 454.914062 377.492188 462.4375 C 365.75 472.109375 352.296875 474.921875 338.578125 470.59375 C 333.902344 469.101562 329.238281 465.847656 324.292969 462.398438 C 317.3125 457.539062 309.421875 452.019531 299.863281 450.894531 C 271.867188 447.597656 245.335938 475.175781 229.441406 491.65625 L 224.152344 497.070312 C 207.976562 513.519531 183.523438 538.386719 207.976562 563.386719 C 208.359375 563.753906 214.097656 569.195312 217.722656 572.613281 L 220.511719 575.261719 C 238.605469 592.644531 262.847656 598.890625 285.167969 598.890625 " fill-opacity="1" 
      fill-rule="nonzero"
    />
  </g>
</svg>